{
	"asset":{
		"version":"2.0",
		"generator":"Created using the official Cinema 4D glTF Exporter 1.000x284978"
	},
	"scenes":[{
		"nodes":[0]
	}],
	"nodes":[{
		"name":"Null.1",
		"translation":[11.829511642456055,
		20.205692291259767,
		-247.9553985595703],
		"rotation":[0.0,
		0.0,
		0.0,
		-1.0],
		"scale":[1.0,
		1.0,
		1.0],
		"children":[1,
		8,
		10,
		12,
		14,
		16,
		18,
		20,
		22]
	},
	{
		"name":"star",
		"translation":[0.12386323511600495,
		4.662856578826904,
		0.40614810585975649],
		"rotation":[0.0,
		0.0,
		0.0,
		-1.0],
		"scale":[1.0,
		1.0,
		1.0],
		"children":[2,
		3,
		4,
		5,
		6,
		7]
	},
	{
		"name":"Default.5",
		"translation":[31.667322158813478,
		0.0,
		-6.966892242431641],
		"mesh":0,
		"rotation":[0.0,
		-0.06553579121828079,
		0.0,
		-0.997850239276886],
		"scale":[1.0,
		1.0,
		1.0]
	},
	{
		"name":"Default.2",
		"translation":[13.735150337219239,
		3.552713678800501e-15,
		-30.148494720458986],
		"mesh":1,
		"rotation":[0.0,
		-0.6087614297866821,
		0.0,
		-0.7933533191680908],
		"scale":[1.0,
		1.0,
		1.0]
	},
	{
		"name":"Default.4",
		"translation":[-34.120338439941409,
		0.0,
		4.413723468780518],
		"mesh":2,
		"rotation":[7.444391769695358e-9,
		-0.9991693496704102,
		-3.0361121949873395e-10,
		0.04075000807642937],
		"scale":[1.0,
		1.0,
		1.0]
	},
	{
		"name":"Default.3",
		"translation":[-19.63556480407715,
		0.0,
		-25.21269989013672],
		"mesh":3,
		"rotation":[0.0,
		-0.8720596432685852,
		0.0,
		-0.48939961194992068],
		"scale":[1.0,
		1.0,
		1.0]
	},
	{
		"name":"Default.1",
		"translation":[17.784515380859376,
		3.552713678800501e-15,
		25.29314422607422],
		"mesh":4,
		"rotation":[2.935749643384611e-9,
		-0.3940296471118927,
		-6.84781165105619e-9,
		0.9190977215766907],
		"scale":[1.0,
		1.0,
		1.0]
	},
	{
		"name":"Default",
		"translation":[-16.045251846313478,
		3.552713678800501e-15,
		25.701171875],
		"mesh":5,
		"rotation":[0.0,
		-0.7933533191680908,
		0.0,
		0.6087614297866821],
		"scale":[1.0,
		1.0,
		1.0]
	},
	{
		"name":"Null.8",
		"translation":[-53.5732421875,
		51.13935089111328,
		41.25630187988281],
		"rotation":[0.0,
		-0.8662170171737671,
		0.0,
		-0.4996679127216339],
		"scale":[1.0,
		1.0,
		1.0],
		"children":[9]
	},
	{
		"name":"Default",
		"translation":[-21.984514236450197,
		-64.75941467285156,
		258.30096435546877],
		"mesh":6,
		"rotation":[0.0,
		0.0,
		0.0,
		-1.0],
		"scale":[1.0,
		1.0,
		1.0]
	},
	{
		"name":"Null.7",
		"translation":[93.44891357421875,
		68.33424377441406,
		-60.14887237548828],
		"rotation":[0.0,
		-0.9395614266395569,
		0.0,
		0.3423804044723511],
		"scale":[1.0,
		1.0,
		1.0],
		"children":[11]
	},
	{
		"name":"Default",
		"translation":[97.53729248046875,
		-81.95430755615235,
		25.773113250732423],
		"mesh":7,
		"rotation":[0.0,
		0.0,
		0.0,
		-1.0],
		"scale":[1.0,
		1.0,
		1.0]
	},
	{
		"name":"Null.6",
		"translation":[-135.21282958984376,
		51.13935089111328,
		51.688262939453128],
		"rotation":[0.0,
		-0.5757999420166016,
		0.0,
		-0.817590594291687],
		"scale":[1.0,
		1.0,
		1.0],
		"children":[13]
	},
	{
		"name":"Default",
		"translation":[101.97234344482422,
		-64.75941467285156,
		308.2574462890625],
		"mesh":8,
		"rotation":[0.0,
		0.0,
		0.0,
		-1.0],
		"scale":[1.0,
		1.0,
		1.0]
	},
	{
		"name":"Null.5",
		"translation":[52.00723648071289,
		68.33424377441406,
		76.7226791381836],
		"rotation":[0.0,
		-0.9964278340339661,
		0.0,
		-0.08444874733686447],
		"scale":[1.0,
		1.0,
		1.0],
		"children":[15]
	},
	{
		"name":"Default",
		"translation":[47.09116744995117,
		-81.95430755615235,
		82.14659881591797],
		"mesh":9,
		"rotation":[0.0,
		0.0,
		0.0,
		-1.0],
		"scale":[1.0,
		1.0,
		1.0]
	},
	{
		"name":"Null.4",
		"translation":[79.9036865234375,
		51.13935089111328,
		-47.50000762939453],
		"rotation":[0.0,
		-0.4247320890426636,
		0.0,
		0.905319094657898],
		"scale":[1.0,
		1.0,
		1.0],
		"children":[17]
	},
	{
		"name":"Default",
		"translation":[-50.37741470336914,
		-64.75941467285156,
		281.5348815917969],
		"mesh":10,
		"rotation":[0.0,
		0.0,
		0.0,
		-1.0],
		"scale":[1.0,
		1.0,
		1.0]
	},
	{
		"name":"Null.3",
		"translation":[-41.523948669433597,
		68.33424377441406,
		72.4366226196289],
		"rotation":[0.0,
		-0.4205021560192108,
		0.0,
		-0.9072915315628052],
		"scale":[1.0,
		1.0,
		1.0],
		"children":[19]
	},
	{
		"name":"Default",
		"translation":[69.92677307128906,
		-81.95430755615235,
		-14.43216323852539],
		"mesh":11,
		"rotation":[0.0,
		-0.157637819647789,
		0.0,
		0.9874969720840454],
		"scale":[1.0,
		1.0,
		1.0]
	},
	{
		"name":"Null.2",
		"translation":[149.22378540039063,
		51.13935089111328,
		-78.92591094970703],
		"rotation":[0.0,
		-0.7439441680908203,
		0.0,
		0.6682417392730713],
		"scale":[1.0,
		1.0,
		1.0],
		"children":[21]
	},
	{
		"name":"Default",
		"translation":[92.37285614013672,
		-64.75941467285156,
		352.4323425292969],
		"mesh":12,
		"rotation":[0.0,
		0.0,
		0.0,
		-1.0],
		"scale":[1.0,
		1.0,
		1.0]
	},
	{
		"name":"Null.1",
		"translation":[-28.6582088470459,
		68.33424377441406,
		-68.22341918945313],
		"rotation":[0.0,
		0.0,
		0.0,
		-1.0],
		"scale":[1.0,
		1.0,
		1.0],
		"children":[23]
	},
	{
		"name":"Default",
		"translation":[8.753193855285645,
		-81.95430755615235,
		81.24539184570313],
		"mesh":13,
		"rotation":[0.0,
		0.0,
		0.0,
		-1.0],
		"scale":[1.0,
		1.0,
		1.0]
	}],
	"meshes":[{
		"name":"Default.5",
		"primitives":[{
			"attributes":{
				"POSITION":1
			},
			"indices":0,
			"material":0
		}]
	},
	{
		"name":"Default.2",
		"primitives":[{
			"attributes":{
				"POSITION":3
			},
			"indices":2,
			"material":0
		}]
	},
	{
		"name":"Default.4",
		"primitives":[{
			"attributes":{
				"POSITION":5
			},
			"indices":4,
			"material":0
		}]
	},
	{
		"name":"Default.3",
		"primitives":[{
			"attributes":{
				"POSITION":7
			},
			"indices":6,
			"material":0
		}]
	},
	{
		"name":"Default.1",
		"primitives":[{
			"attributes":{
				"POSITION":9
			},
			"indices":8,
			"material":0
		}]
	},
	{
		"name":"Default",
		"primitives":[{
			"attributes":{
				"POSITION":11
			},
			"indices":10,
			"material":0
		}]
	},
	{
		"name":"Default",
		"primitives":[{
			"attributes":{
				"POSITION":13
			},
			"indices":12,
			"material":1
		}]
	},
	{
		"name":"Default",
		"primitives":[{
			"attributes":{
				"POSITION":15
			},
			"indices":14,
			"material":1
		}]
	},
	{
		"name":"Default",
		"primitives":[{
			"attributes":{
				"POSITION":17
			},
			"indices":16,
			"material":1
		}]
	},
	{
		"name":"Default",
		"primitives":[{
			"attributes":{
				"POSITION":19
			},
			"indices":18,
			"material":1
		}]
	},
	{
		"name":"Default",
		"primitives":[{
			"attributes":{
				"POSITION":21
			},
			"indices":20,
			"material":1
		}]
	},
	{
		"name":"Default",
		"primitives":[{
			"attributes":{
				"POSITION":23
			},
			"indices":22,
			"material":1
		}]
	},
	{
		"name":"Default",
		"primitives":[{
			"attributes":{
				"POSITION":25
			},
			"indices":24,
			"material":1
		}]
	},
	{
		"name":"Default",
		"primitives":[{
			"attributes":{
				"POSITION":27
			},
			"indices":26,
			"material":1
		}]
	}],
	"accessors":[{
		"bufferView":0,
		"type":"SCALAR",
		"componentType":5123,
		"count":60,
		"byteOffset":0,
		"min":[0],
		"max":[11]
	},
	{
		"bufferView":1,
		"type":"VEC3",
		"componentType":5126,
		"count":12,
		"byteOffset":0,
		"min":[-7.120031356811523,
		-11.854581832885743,
		-12.031255722045899],
		"max":[7.197897434234619,
		14.001998901367188,
		14.852456092834473]
	},
	{
		"bufferView":2,
		"type":"SCALAR",
		"componentType":5123,
		"count":60,
		"byteOffset":0,
		"min":[0],
		"max":[11]
	},
	{
		"bufferView":3,
		"type":"VEC3",
		"componentType":5126,
		"count":12,
		"byteOffset":0,
		"min":[-7.120031356811523,
		-11.854581832885743,
		-12.031255722045899],
		"max":[7.197897434234619,
		14.001998901367188,
		14.852456092834473]
	},
	{
		"bufferView":4,
		"type":"SCALAR",
		"componentType":5123,
		"count":60,
		"byteOffset":0,
		"min":[0],
		"max":[11]
	},
	{
		"bufferView":5,
		"type":"VEC3",
		"componentType":5126,
		"count":12,
		"byteOffset":0,
		"min":[-7.120031356811523,
		-11.854581832885743,
		-12.031255722045899],
		"max":[7.197897434234619,
		14.001998901367188,
		14.852456092834473]
	},
	{
		"bufferView":6,
		"type":"SCALAR",
		"componentType":5123,
		"count":60,
		"byteOffset":0,
		"min":[0],
		"max":[11]
	},
	{
		"bufferView":7,
		"type":"VEC3",
		"componentType":5126,
		"count":12,
		"byteOffset":0,
		"min":[-7.120031356811523,
		-11.854581832885743,
		-12.031255722045899],
		"max":[7.197897434234619,
		14.001998901367188,
		14.852456092834473]
	},
	{
		"bufferView":8,
		"type":"SCALAR",
		"componentType":5123,
		"count":60,
		"byteOffset":0,
		"min":[0],
		"max":[11]
	},
	{
		"bufferView":9,
		"type":"VEC3",
		"componentType":5126,
		"count":12,
		"byteOffset":0,
		"min":[-7.120031356811523,
		-11.854581832885743,
		-12.031255722045899],
		"max":[7.197897434234619,
		14.001998901367188,
		14.852456092834473]
	},
	{
		"bufferView":10,
		"type":"SCALAR",
		"componentType":5123,
		"count":60,
		"byteOffset":0,
		"min":[0],
		"max":[11]
	},
	{
		"bufferView":11,
		"type":"VEC3",
		"componentType":5126,
		"count":12,
		"byteOffset":0,
		"min":[-7.120031356811523,
		-11.854581832885743,
		-12.031255722045899],
		"max":[7.197897434234619,
		14.001998901367188,
		14.852456092834473]
	},
	{
		"bufferView":12,
		"type":"SCALAR",
		"componentType":5123,
		"count":4680,
		"byteOffset":0,
		"min":[0],
		"max":[787]
	},
	{
		"bufferView":13,
		"type":"VEC3",
		"componentType":5126,
		"count":788,
		"byteOffset":0,
		"min":[17.21875,
		11.57810115814209,
		-195.28167724609376],
		"max":[50.42241287231445,
		96.36267852783203,
		-113.75823211669922]
	},
	{
		"bufferView":14,
		"type":"SCALAR",
		"componentType":5123,
		"count":4680,
		"byteOffset":0,
		"min":[0],
		"max":[787]
	},
	{
		"bufferView":15,
		"type":"VEC3",
		"componentType":5126,
		"count":788,
		"byteOffset":0,
		"min":[4.071986198425293,
		11.57810115814209,
		2.765073537826538],
		"max":[45.48088073730469,
		96.36267852783203,
		81.11978912353516]
	},
	{
		"bufferView":16,
		"type":"SCALAR",
		"componentType":5123,
		"count":4680,
		"byteOffset":0,
		"min":[0],
		"max":[787]
	},
	{
		"bufferView":17,
		"type":"VEC3",
		"componentType":5126,
		"count":788,
		"byteOffset":0,
		"min":[-8.034595489501954,
		11.57810115814209,
		-197.2393341064453],
		"max":[28.35941505432129,
		96.36267852783203,
		-112.05857849121094]
	},
	{
		"bufferView":18,
		"type":"SCALAR",
		"componentType":5123,
		"count":4680,
		"byteOffset":0,
		"min":[0],
		"max":[787]
	},
	{
		"bufferView":19,
		"type":"VEC3",
		"componentType":5126,
		"count":788,
		"byteOffset":0,
		"min":[2.6683437824249269,
		11.57810115814209,
		0.13627836108207704],
		"max":[42.268165588378909,
		96.36267852783203,
		71.20638275146485]
	},
	{
		"bufferView":20,
		"type":"SCALAR",
		"componentType":5123,
		"count":4680,
		"byteOffset":0,
		"min":[0],
		"max":[787]
	},
	{
		"bufferView":21,
		"type":"VEC3",
		"componentType":5126,
		"count":788,
		"byteOffset":0,
		"min":[19.256547927856447,
		11.57810115814209,
		-189.85626220703126],
		"max":[53.327266693115237,
		96.36267852783203,
		-110.85982513427735]
	},
	{
		"bufferView":22,
		"type":"SCALAR",
		"componentType":5123,
		"count":4680,
		"byteOffset":0,
		"min":[0],
		"max":[787]
	},
	{
		"bufferView":23,
		"type":"VEC3",
		"componentType":5126,
		"count":788,
		"byteOffset":0,
		"min":[4.034714221954346,
		11.57810115814209,
		2.562943458557129],
		"max":[45.96500015258789,
		96.36267852783203,
		78.68968963623047]
	},
	{
		"bufferView":24,
		"type":"SCALAR",
		"componentType":5123,
		"count":4680,
		"byteOffset":0,
		"min":[0],
		"max":[787]
	},
	{
		"bufferView":25,
		"type":"VEC3",
		"componentType":5126,
		"count":788,
		"byteOffset":0,
		"min":[-3.175964832305908,
		11.57810115814209,
		-200.78814697265626],
		"max":[31.208938598632814,
		96.36267852783203,
		-114.65406036376953]
	},
	{
		"bufferView":26,
		"type":"SCALAR",
		"componentType":5123,
		"count":4680,
		"byteOffset":0,
		"min":[0],
		"max":[787]
	},
	{
		"bufferView":27,
		"type":"VEC3",
		"componentType":5126,
		"count":788,
		"byteOffset":0,
		"min":[3.0905935764312746,
		11.57810115814209,
		0.7933419942855835],
		"max":[43.652099609375,
		96.36267852783203,
		71.76882934570313]
	}],
	"bufferViews":[{
		"buffer":0,
		"byteOffset":0,
		"byteLength":120,
		"target":34963
	},
	{
		"buffer":0,
		"byteOffset":120,
		"byteLength":144,
		"target":34962
	},
	{
		"buffer":1,
		"byteOffset":0,
		"byteLength":120,
		"target":34963
	},
	{
		"buffer":1,
		"byteOffset":120,
		"byteLength":144,
		"target":34962
	},
	{
		"buffer":2,
		"byteOffset":0,
		"byteLength":120,
		"target":34963
	},
	{
		"buffer":2,
		"byteOffset":120,
		"byteLength":144,
		"target":34962
	},
	{
		"buffer":3,
		"byteOffset":0,
		"byteLength":120,
		"target":34963
	},
	{
		"buffer":3,
		"byteOffset":120,
		"byteLength":144,
		"target":34962
	},
	{
		"buffer":4,
		"byteOffset":0,
		"byteLength":120,
		"target":34963
	},
	{
		"buffer":4,
		"byteOffset":120,
		"byteLength":144,
		"target":34962
	},
	{
		"buffer":5,
		"byteOffset":0,
		"byteLength":120,
		"target":34963
	},
	{
		"buffer":5,
		"byteOffset":120,
		"byteLength":144,
		"target":34962
	},
	{
		"buffer":6,
		"byteOffset":0,
		"byteLength":9360,
		"target":34963
	},
	{
		"buffer":6,
		"byteOffset":9360,
		"byteLength":9456,
		"target":34962
	},
	{
		"buffer":7,
		"byteOffset":0,
		"byteLength":9360,
		"target":34963
	},
	{
		"buffer":7,
		"byteOffset":9360,
		"byteLength":9456,
		"target":34962
	},
	{
		"buffer":8,
		"byteOffset":0,
		"byteLength":9360,
		"target":34963
	},
	{
		"buffer":8,
		"byteOffset":9360,
		"byteLength":9456,
		"target":34962
	},
	{
		"buffer":9,
		"byteOffset":0,
		"byteLength":9360,
		"target":34963
	},
	{
		"buffer":9,
		"byteOffset":9360,
		"byteLength":9456,
		"target":34962
	},
	{
		"buffer":10,
		"byteOffset":0,
		"byteLength":9360,
		"target":34963
	},
	{
		"buffer":10,
		"byteOffset":9360,
		"byteLength":9456,
		"target":34962
	},
	{
		"buffer":11,
		"byteOffset":0,
		"byteLength":9360,
		"target":34963
	},
	{
		"buffer":11,
		"byteOffset":9360,
		"byteLength":9456,
		"target":34962
	},
	{
		"buffer":12,
		"byteOffset":0,
		"byteLength":9360,
		"target":34963
	},
	{
		"buffer":12,
		"byteOffset":9360,
		"byteLength":9456,
		"target":34962
	},
	{
		"buffer":13,
		"byteOffset":0,
		"byteLength":9360,
		"target":34963
	},
	{
		"buffer":13,
		"byteOffset":9360,
		"byteLength":9456,
		"target":34962
	}],
	"buffers":[{
		"uri":"data:application/octet-stream;base64,",
		"byteLength":264
	},
	{
		"uri":"data:application/octet-stream;base64,",
		"byteLength":264
	},
	{
		"uri":"data:application/octet-stream;base64,",
		"byteLength":264
	},
	{
		"uri":"data:application/octet-stream;base64,",
		"byteLength":264
	},
	{
		"uri":"data:application/octet-stream;base64,",
		"byteLength":264
	},
	{
		"uri":"data:application/octet-stream;base64,",
		"byteLength":264
	},
	{
		"uri":"data:application/octet-stream;base64,",
		"byteLength":18816
	},
	{
		"uri":"data:application/octet-stream;base64,",
		"byteLength":18816
	},
	{
		"uri":"data:application/octet-stream;base64,",
		"byteLength":18816
	},
	{
		"uri":"data:application/octet-stream;base64,",
		"byteLength":18816
	},
	{
		"uri":"data:application/octet-stream;base64,",
		"byteLength":18816
	},
	{
		"uri":"data:application/octet-stream;base64,",
		"byteLength":18816
	},
	{
		"uri":"data:application/octet-stream;base64,",
		"byteLength":18816
	},
	{
		"uri":"data:application/octet-stream;base64,",
		"byteLength":18816
	}],
	"materials":[{
		"pbrMetallicRoughness":{
			"baseColorFactor":[1.0,
			0.8185000000000002,
			0.010000000000000009,
			1.0],
			"metallicFactor":0.0,
			"roughnessFactor":0.5
		},
		"emissiveFactor":[0.0,
		0.0,
		0.0],
		"alphaMode":"OPAQUE",
		"doubleSided":false,
		"name":"Mat.1"
	},
	{
		"pbrMetallicRoughness":{
			"baseColorFactor":[0.30000001192092898,
			0.6899999976158142,
			0.3100000023841858,
			1.0],
			"metallicFactor":0.0,
			"roughnessFactor":0.5
		},
		"emissiveFactor":[0.0,
		0.0,
		0.0],
		"alphaMode":"OPAQUE",
		"doubleSided":false,
		"name":"mat10"
	}]
}