{
	"asset":{
		"version":"2.0",
		"generator":"Created using the official Cinema 4D glTF Exporter 1.000x284978"
	},
	"scenes":[{
		"nodes":[0,
		1,
		2]
	}],
	"nodes":[{
		"name":"Sphere.1",
		"translation":[10.865086555480957,
		57.247947692871097,
		-5.772331237792969],
		"rotation":[0.0,
		0.0,
		0.0,
		-1.0],
		"scale":[1.0,
		1.0,
		1.0],
		"mesh":0
	},
	{
		"name":"Sphere",
		"translation":[5.287865161895752,
		41.52149200439453,
		-6.821358680725098],
		"rotation":[5.70801905741547e-10,
		-0.07661173492670059,
		-7.428683446164541e-9,
		0.997061014175415],
		"scale":[1.0,
		1.0,
		1.0],
		"mesh":1
	},
	{
		"name":"Default",
		"translation":[0.0,
		13.119735717773438,
		0.0],
		"rotation":[0.0,
		0.0,
		0.0,
		-1.0],
		"scale":[1.0,
		1.0,
		1.0],
		"children":[3,
		4,
		5]
	},
	{
		"name":"Default-01___Default",
		"mesh":2
	},
	{
		"name":"Default-03___Default",
		"mesh":3
	},
	{
		"name":"Default-04___Default",
		"mesh":4
	}],
	"meshes":[{
		"name":"Sphere.1",
		"primitives":[{
			"attributes":{
				"POSITION":1,
				"NORMAL":2,
				"TEXCOORD_0":3
			},
			"indices":0,
			"material":0
		}]
	},
	{
		"name":"Sphere",
		"primitives":[{
			"attributes":{
				"POSITION":5,
				"NORMAL":6,
				"TEXCOORD_0":7
			},
			"indices":4,
			"material":1
		}]
	},
	{
		"name":"Default-01___Default",
		"primitives":[{
			"attributes":{
				"POSITION":9,
				"NORMAL":10,
				"TEXCOORD_0":11
			},
			"indices":8,
			"material":2
		}]
	},
	{
		"name":"Default-03___Default",
		"primitives":[{
			"attributes":{
				"POSITION":13,
				"NORMAL":14,
				"TEXCOORD_0":15
			},
			"indices":12,
			"material":1
		}]
	},
	{
		"name":"Default-04___Default",
		"primitives":[{
			"attributes":{
				"POSITION":17,
				"NORMAL":18,
				"TEXCOORD_0":19
			},
			"indices":16,
			"material":3
		}]
	}],
	"accessors":[{
		"bufferView":0,
		"type":"SCALAR",
		"componentType":5123,
		"byteOffset":0,
		"count":672,
		"min":[0],
		"max":[150]
	},
	{
		"bufferView":1,
		"type":"VEC3",
		"componentType":5126,
		"byteOffset":0,
		"count":151,
		"min":[-77.46781921386719,
		-77.46781921386719,
		-77.46781921386719],
		"max":[77.46781921386719,
		77.46781921386719,
		77.46781921386719]
	},
	{
		"bufferView":1,
		"type":"VEC3",
		"componentType":5126,
		"byteOffset":12,
		"count":151,
		"min":[-0.9999999403953552,
		-1.0,
		-0.9999999403953552],
		"max":[0.9999999403953552,
		1.0,
		0.9999999403953552]
	},
	{
		"bufferView":1,
		"type":"VEC2",
		"componentType":5126,
		"byteOffset":24,
		"count":151,
		"min":[0.0,
		0.0],
		"max":[1.0,
		1.0]
	},
	{
		"bufferView":2,
		"type":"SCALAR",
		"componentType":5123,
		"byteOffset":0,
		"count":240,
		"min":[0],
		"max":[66]
	},
	{
		"bufferView":3,
		"type":"VEC3",
		"componentType":5126,
		"byteOffset":0,
		"count":67,
		"min":[-55.02666473388672,
		-58.85607147216797,
		-56.885337829589847],
		"max":[55.02666473388672,
		-22.523242950439454,
		56.885337829589847]
	},
	{
		"bufferView":3,
		"type":"VEC3",
		"componentType":5126,
		"byteOffset":12,
		"count":67,
		"min":[-0.8272301554679871,
		-1.0,
		-0.8183208107948303],
		"max":[0.8272301554679871,
		-0.559352457523346,
		0.8183208107948303]
	},
	{
		"bufferView":3,
		"type":"VEC2",
		"componentType":5126,
		"byteOffset":24,
		"count":67,
		"min":[0.0,
		0.625],
		"max":[1.0,
		1.0]
	},
	{
		"bufferView":4,
		"type":"SCALAR",
		"componentType":5123,
		"byteOffset":0,
		"count":38568,
		"min":[0],
		"max":[17607]
	},
	{
		"bufferView":5,
		"type":"VEC3",
		"componentType":5126,
		"byteOffset":0,
		"count":17608,
		"min":[-37.42273712158203,
		5.72930908203125,
		-65.42474365234375],
		"max":[57.58863830566406,
		59.89695739746094,
		50.425880432128909]
	},
	{
		"bufferView":5,
		"type":"VEC3",
		"componentType":5126,
		"byteOffset":12,
		"count":17608,
		"min":[-1.0,
		-0.999093770980835,
		-1.0],
		"max":[0.9998750686645508,
		1.0,
		1.0]
	},
	{
		"bufferView":5,
		"type":"VEC2",
		"componentType":5126,
		"byteOffset":24,
		"count":17608,
		"min":[-23.48959732055664,
		0.0],
		"max":[18.373798370361329,
		59.735496520996097]
	},
	{
		"bufferView":6,
		"type":"SCALAR",
		"componentType":5123,
		"byteOffset":0,
		"count":90,
		"min":[0],
		"max":[31]
	},
	{
		"bufferView":7,
		"type":"VEC3",
		"componentType":5126,
		"byteOffset":0,
		"count":32,
		"min":[-49.93372344970703,
		5.941765785217285,
		-62.31639099121094],
		"max":[59.80738067626953,
		9.985471725463868,
		46.882469177246097]
	},
	{
		"bufferView":7,
		"type":"VEC3",
		"componentType":5126,
		"byteOffset":12,
		"count":32,
		"min":[-0.9889063239097595,
		0.10450000315904618,
		-0.994437575340271],
		"max":[0.9889063239097595,
		0.30115625262260439,
		0.9727500677108765]
	},
	{
		"bufferView":7,
		"type":"VEC2",
		"componentType":5126,
		"byteOffset":24,
		"count":32,
		"min":[0.0,
		0.3999999761581421],
		"max":[1.0,
		0.5332999229431152]
	},
	{
		"bufferView":8,
		"type":"SCALAR",
		"componentType":5123,
		"byteOffset":0,
		"count":225,
		"min":[0],
		"max":[62]
	},
	{
		"bufferView":9,
		"type":"VEC3",
		"componentType":5126,
		"byteOffset":0,
		"count":63,
		"min":[-47.535648345947269,
		9.985471725463868,
		-59.90384292602539],
		"max":[57.409305572509769,
		16.742107391357423,
		44.522560119628909]
	},
	{
		"bufferView":9,
		"type":"VEC3",
		"componentType":5126,
		"byteOffset":12,
		"count":63,
		"min":[-0.9481250643730164,
		0.30115625262260439,
		-0.9535313248634338],
		"max":[0.9481250643730164,
		1.0,
		0.932687520980835]
	},
	{
		"bufferView":9,
		"type":"VEC2",
		"componentType":5126,
		"byteOffset":24,
		"count":63,
		"min":[0.0,
		0.0],
		"max":[1.0,
		0.3999999761581421]
	}],
	"bufferViews":[{
		"target":34963,
		"buffer":0,
		"byteOffset":0,
		"byteLength":1344
	},
	{
		"target":34962,
		"buffer":0,
		"byteOffset":1344,
		"byteLength":4832,
		"byteStride":32
	},
	{
		"target":34963,
		"buffer":1,
		"byteOffset":0,
		"byteLength":480
	},
	{
		"target":34962,
		"buffer":1,
		"byteOffset":480,
		"byteLength":2144,
		"byteStride":32
	},
	{
		"target":34963,
		"buffer":2,
		"byteOffset":0,
		"byteLength":77136
	},
	{
		"target":34962,
		"buffer":2,
		"byteOffset":77136,
		"byteLength":563456,
		"byteStride":32
	},
	{
		"target":34963,
		"buffer":3,
		"byteOffset":0,
		"byteLength":180
	},
	{
		"target":34962,
		"buffer":3,
		"byteOffset":180,
		"byteLength":1024,
		"byteStride":32
	},
	{
		"target":34963,
		"buffer":4,
		"byteOffset":0,
		"byteLength":450
	},
	{
		"target":34962,
		"buffer":4,
		"byteOffset":452,
		"byteLength":2016,
		"byteStride":32
	}],
	"buffers":[{
		"uri":"data:application/octet-stream;base64,",
		"byteLength":6176
	},
	{
		"uri":"data:application/octet-stream;base64,",
		"byteLength":2624
	},
	{
		"uri":"data:application/octet-stream;base64,",
		"byteLength":640592
	},
	{
		"uri":"data:application/octet-stream;base64,",
		"byteLength":1204
	},
	{
		"uri":"data:application/octet-stream;base64,",
		"byteLength":2468
	}],
	"materials":[{
		"pbrMetallicRoughness":{
			"baseColorFactor":[0.8,
			0.8,
			0.8,
			0.0],
			"metallicFactor":0.0,
			"roughnessFactor":0.5700000000000001
		},
		"emissiveFactor":[0.0,
		0.0,
		0.0],
		"alphaMode":"BLEND",
		"doubleSided":false,
		"name":"Mat"
	},
	{
		"pbrMetallicRoughness":{
			"baseColorFactor":[0.41000000000000005,
			0.2894600080034136,
			0.21709499072887018,
			1.0],
			"metallicFactor":1.0,
			"roughnessFactor":1.0
		},
		"emissiveFactor":[0.0,
		0.0,
		0.0],
		"alphaMode":"BLEND",
		"doubleSided":false,
		"name":"03___Default"
	},
	{
		"pbrMetallicRoughness":{
			"baseColorFactor":[0.18753712829657985,
			0.37,
			0.09620000000000001,
			1.0],
			"metallicFactor":1.0,
			"roughnessFactor":1.0
		},
		"emissiveFactor":[0.0,
		0.0,
		0.0],
		"alphaMode":"BLEND",
		"doubleSided":false,
		"name":"01___Default"
	},
	{
		"pbrMetallicRoughness":{
			"baseColorFactor":[0.07493622103515552,
			0.25,
			0.0,
			1.0],
			"metallicFactor":1.0,
			"roughnessFactor":1.0
		},
		"emissiveFactor":[0.023499999195337293,
		0.07840000092983246,
		0.0],
		"alphaMode":"BLEND",
		"doubleSided":false,
		"name":"04___Default"
	}]
}