{
	"asset":{
		"version":"2.0",
		"generator":"Created using the official Cinema 4D glTF Exporter 1.000x284978"
	},
	"scenes":[{
		"nodes":[0]
	}],
	"nodes":[{
		"name":"Null",
		"translation":[4.173137187957764,
		2.9209368228912355,
		-4.046525955200195],
		"rotation":[0.0,
		0.0,
		0.0,
		-1.0],
		"scale":[1.0,
		1.0,
		1.0],
		"children":[1,
		8]
	},
	{
		"name":"star",
		"translation":[1.34917414188385,
		0.43110448122024538,
		-4.046525955200195],
		"rotation":[0.0,
		0.0,
		0.0,
		-1.0],
		"scale":[1.0,
		1.0,
		1.0],
		"children":[2,
		3,
		4,
		5,
		6,
		7]
	},
	{
		"name":"Default.5",
		"translation":[31.667322158813478,
		0.0,
		-6.966892242431641],
		"mesh":0,
		"rotation":[0.0,
		-0.06553579121828079,
		0.0,
		-0.997850239276886],
		"scale":[1.0,
		1.0,
		1.0]
	},
	{
		"name":"Default.2",
		"translation":[13.735150337219239,
		3.552713678800501e-15,
		-30.148494720458986],
		"mesh":1,
		"rotation":[0.0,
		-0.6087614297866821,
		0.0,
		-0.7933533191680908],
		"scale":[1.0,
		1.0,
		1.0]
	},
	{
		"name":"Default.4",
		"translation":[-34.120338439941409,
		0.0,
		4.413723468780518],
		"mesh":2,
		"rotation":[7.444391769695358e-9,
		-0.9991693496704102,
		-3.0361121949873395e-10,
		0.04075000807642937],
		"scale":[1.0,
		1.0,
		1.0]
	},
	{
		"name":"Default.3",
		"translation":[-19.63556480407715,
		0.0,
		-25.21269989013672],
		"mesh":3,
		"rotation":[0.0,
		-0.8720596432685852,
		0.0,
		-0.48939961194992068],
		"scale":[1.0,
		1.0,
		1.0]
	},
	{
		"name":"Default.1",
		"translation":[17.784515380859376,
		3.552713678800501e-15,
		25.29314422607422],
		"mesh":4,
		"rotation":[2.935749643384611e-9,
		-0.3940296471118927,
		-6.84781165105619e-9,
		0.9190977215766907],
		"scale":[1.0,
		1.0,
		1.0]
	},
	{
		"name":"Default",
		"translation":[-16.045251846313478,
		3.552713678800501e-15,
		25.701171875],
		"mesh":5,
		"rotation":[0.0,
		-0.7933533191680908,
		0.0,
		0.6087614297866821],
		"scale":[1.0,
		1.0,
		1.0]
	},
	{
		"name":"Default",
		"translation":[-1.34917414188385,
		-0.43110448122024538,
		4.046525955200195],
		"mesh":6,
		"rotation":[0.0,
		0.0,
		0.0,
		-1.0],
		"scale":[1.0,
		1.0,
		1.0]
	}],
	"meshes":[{
		"name":"Default.5",
		"primitives":[{
			"attributes":{
				"POSITION":1
			},
			"indices":0,
			"material":0
		}]
	},
	{
		"name":"Default.2",
		"primitives":[{
			"attributes":{
				"POSITION":3
			},
			"indices":2,
			"material":0
		}]
	},
	{
		"name":"Default.4",
		"primitives":[{
			"attributes":{
				"POSITION":5
			},
			"indices":4,
			"material":0
		}]
	},
	{
		"name":"Default.3",
		"primitives":[{
			"attributes":{
				"POSITION":7
			},
			"indices":6,
			"material":0
		}]
	},
	{
		"name":"Default.1",
		"primitives":[{
			"attributes":{
				"POSITION":9
			},
			"indices":8,
			"material":0
		}]
	},
	{
		"name":"Default",
		"primitives":[{
			"attributes":{
				"POSITION":11
			},
			"indices":10,
			"material":0
		}]
	},
	{
		"name":"Default",
		"primitives":[{
			"attributes":{
				"POSITION":13
			},
			"indices":12,
			"material":1
		}]
	}],
	"accessors":[{
		"bufferView":0,
		"type":"SCALAR",
		"componentType":5123,
		"count":60,
		"byteOffset":0,
		"min":[0],
		"max":[11]
	},
	{
		"bufferView":1,
		"type":"VEC3",
		"componentType":5126,
		"count":12,
		"byteOffset":0,
		"min":[-7.120031356811523,
		-11.854581832885743,
		-12.031255722045899],
		"max":[7.197897434234619,
		14.001998901367188,
		14.852456092834473]
	},
	{
		"bufferView":2,
		"type":"SCALAR",
		"componentType":5123,
		"count":60,
		"byteOffset":0,
		"min":[0],
		"max":[11]
	},
	{
		"bufferView":3,
		"type":"VEC3",
		"componentType":5126,
		"count":12,
		"byteOffset":0,
		"min":[-7.120031356811523,
		-11.854581832885743,
		-12.031255722045899],
		"max":[7.197897434234619,
		14.001998901367188,
		14.852456092834473]
	},
	{
		"bufferView":4,
		"type":"SCALAR",
		"componentType":5123,
		"count":60,
		"byteOffset":0,
		"min":[0],
		"max":[11]
	},
	{
		"bufferView":5,
		"type":"VEC3",
		"componentType":5126,
		"count":12,
		"byteOffset":0,
		"min":[-7.120031356811523,
		-11.854581832885743,
		-12.031255722045899],
		"max":[7.197897434234619,
		14.001998901367188,
		14.852456092834473]
	},
	{
		"bufferView":6,
		"type":"SCALAR",
		"componentType":5123,
		"count":60,
		"byteOffset":0,
		"min":[0],
		"max":[11]
	},
	{
		"bufferView":7,
		"type":"VEC3",
		"componentType":5126,
		"count":12,
		"byteOffset":0,
		"min":[-7.120031356811523,
		-11.854581832885743,
		-12.031255722045899],
		"max":[7.197897434234619,
		14.001998901367188,
		14.852456092834473]
	},
	{
		"bufferView":8,
		"type":"SCALAR",
		"componentType":5123,
		"count":60,
		"byteOffset":0,
		"min":[0],
		"max":[11]
	},
	{
		"bufferView":9,
		"type":"VEC3",
		"componentType":5126,
		"count":12,
		"byteOffset":0,
		"min":[-7.120031356811523,
		-11.854581832885743,
		-12.031255722045899],
		"max":[7.197897434234619,
		14.001998901367188,
		14.852456092834473]
	},
	{
		"bufferView":10,
		"type":"SCALAR",
		"componentType":5123,
		"count":60,
		"byteOffset":0,
		"min":[0],
		"max":[11]
	},
	{
		"bufferView":11,
		"type":"VEC3",
		"componentType":5126,
		"count":12,
		"byteOffset":0,
		"min":[-7.120031356811523,
		-11.854581832885743,
		-12.031255722045899],
		"max":[7.197897434234619,
		14.001998901367188,
		14.852456092834473]
	},
	{
		"bufferView":12,
		"type":"SCALAR",
		"componentType":5123,
		"count":38571,
		"byteOffset":0,
		"min":[0],
		"max":[6513]
	},
	{
		"bufferView":13,
		"type":"VEC3",
		"componentType":5126,
		"count":6514,
		"byteOffset":0,
		"min":[-43.91218185424805,
		-5.054187774658203,
		-65.42474365234375],
		"max":[51.09918975830078,
		49.113460540771487,
		50.425880432128909]
	}],
	"bufferViews":[{
		"buffer":0,
		"byteOffset":0,
		"byteLength":120,
		"target":34963
	},
	{
		"buffer":0,
		"byteOffset":120,
		"byteLength":144,
		"target":34962
	},
	{
		"buffer":1,
		"byteOffset":0,
		"byteLength":120,
		"target":34963
	},
	{
		"buffer":1,
		"byteOffset":120,
		"byteLength":144,
		"target":34962
	},
	{
		"buffer":2,
		"byteOffset":0,
		"byteLength":120,
		"target":34963
	},
	{
		"buffer":2,
		"byteOffset":120,
		"byteLength":144,
		"target":34962
	},
	{
		"buffer":3,
		"byteOffset":0,
		"byteLength":120,
		"target":34963
	},
	{
		"buffer":3,
		"byteOffset":120,
		"byteLength":144,
		"target":34962
	},
	{
		"buffer":4,
		"byteOffset":0,
		"byteLength":120,
		"target":34963
	},
	{
		"buffer":4,
		"byteOffset":120,
		"byteLength":144,
		"target":34962
	},
	{
		"buffer":5,
		"byteOffset":0,
		"byteLength":120,
		"target":34963
	},
	{
		"buffer":5,
		"byteOffset":120,
		"byteLength":144,
		"target":34962
	},
	{
		"buffer":6,
		"byteOffset":0,
		"byteLength":77142,
		"target":34963
	},
	{
		"buffer":6,
		"byteOffset":77144,
		"byteLength":78168,
		"target":34962
	}],
	"buffers":[{
		"uri":"data:application/octet-stream;base64,",
		"byteLength":264
	},
	{
		"uri":"data:application/octet-stream;base64,",
		"byteLength":264
	},
	{
		"uri":"data:application/octet-stream;base64,",
		"byteLength":264
	},
	{
		"uri":"data:application/octet-stream;base64,",
		"byteLength":264
	},
	{
		"uri":"data:application/octet-stream;base64,",
		"byteLength":264
	},
	{
		"uri":"data:application/octet-stream;base64,",
		"byteLength":264
	},
	{
		"uri":"data:application/octet-stream;base64,",
		"byteLength":155312
	}],
	"materials":[{
		"pbrMetallicRoughness":{
			"baseColorFactor":[1.0,
			0.8185000000000002,
			0.010000000000000009,
			1.0],
			"metallicFactor":0.0,
			"roughnessFactor":0.5
		},
		"emissiveFactor":[0.0,
		0.0,
		0.0],
		"alphaMode":"OPAQUE",
		"doubleSided":false,
		"name":"Mat.1"
	},
	{
		"pbrMetallicRoughness":{
			"baseColorFactor":[0.30000001192092898,
			0.6899999976158142,
			0.3100000023841858,
			1.0],
			"metallicFactor":0.0,
			"roughnessFactor":0.5
		},
		"emissiveFactor":[0.0,
		0.0,
		0.0],
		"alphaMode":"OPAQUE",
		"doubleSided":false,
		"name":"mat10"
	}]
}