{
	"asset":{
		"version":"2.0",
		"generator":"Created using the official Cinema 4D glTF Exporter 1.000x284978"
	},
	"scenes":[{
		"nodes":[0]
	}],
	"nodes":[{
		"name":"Null",
		"translation":[5.384317398071289,
		37.296390533447269,
		-4.197896480560303],
		"rotation":[0.0,
		0.0,
		0.0,
		-1.0],
		"scale":[1.0,
		1.0,
		1.0],
		"children":[1]
	},
	{
		"name":"Default",
		"translation":[-5.384317398071289,
		-24.17665672302246,
		4.197896480560303],
		"rotation":[0.0,
		0.0,
		0.0,
		-1.0],
		"scale":[1.0,
		1.0,
		1.0],
		"children":[2,
		3]
	},
	{
		"name":"Default-01___Default",
		"mesh":0
	},
	{
		"name":"Default-04___Default",
		"mesh":1
	}],
	"meshes":[{
		"name":"Default-01___Default",
		"primitives":[{
			"attributes":{
				"POSITION":1,
				"NORMAL":2,
				"TEXCOORD_0":3
			},
			"indices":0,
			"material":0
		}]
	},
	{
		"name":"Default-04___Default",
		"primitives":[{
			"attributes":{
				"POSITION":5,
				"NORMAL":6,
				"TEXCOORD_0":7
			},
			"indices":4,
			"material":1
		}]
	}],
	"accessors":[{
		"bufferView":0,
		"type":"SCALAR",
		"componentType":5123,
		"byteOffset":0,
		"count":38568,
		"min":[0],
		"max":[17607]
	},
	{
		"bufferView":1,
		"type":"VEC3",
		"componentType":5126,
		"byteOffset":0,
		"count":17608,
		"min":[-37.42273712158203,
		5.72930908203125,
		-65.42474365234375],
		"max":[57.58863830566406,
		59.89695739746094,
		50.425880432128909]
	},
	{
		"bufferView":1,
		"type":"VEC3",
		"componentType":5126,
		"byteOffset":12,
		"count":17608,
		"min":[-1.0,
		-0.999093770980835,
		-1.0],
		"max":[0.9998750686645508,
		1.0,
		1.0]
	},
	{
		"bufferView":1,
		"type":"VEC2",
		"componentType":5126,
		"byteOffset":24,
		"count":17608,
		"min":[-23.48959732055664,
		0.0],
		"max":[18.373798370361329,
		59.735496520996097]
	},
	{
		"bufferView":2,
		"type":"SCALAR",
		"componentType":5123,
		"byteOffset":0,
		"count":3,
		"min":[0],
		"max":[2]
	},
	{
		"bufferView":3,
		"type":"VEC3",
		"componentType":5126,
		"byteOffset":0,
		"count":3,
		"min":[-4.240944862365723,
		15.896707534790039,
		-29.690427780151368],
		"max":[4.936829090118408,
		16.742107391357423,
		-7.11378812789917]
	},
	{
		"bufferView":3,
		"type":"VEC3",
		"componentType":5126,
		"byteOffset":12,
		"count":3,
		"min":[-0.1745312511920929,
		0.9030938148498535,
		-0.4292812645435333],
		"max":[0.0,
		1.0,
		0.0]
	},
	{
		"bufferView":3,
		"type":"VEC2",
		"componentType":5126,
		"byteOffset":24,
		"count":3,
		"min":[0.0,
		0.0],
		"max":[0.06669999659061432,
		0.13330000638961793]
	}],
	"bufferViews":[{
		"target":34963,
		"buffer":0,
		"byteOffset":0,
		"byteLength":77136
	},
	{
		"target":34962,
		"buffer":0,
		"byteOffset":77136,
		"byteLength":563456,
		"byteStride":32
	},
	{
		"target":34963,
		"buffer":1,
		"byteOffset":0,
		"byteLength":6
	},
	{
		"target":34962,
		"buffer":1,
		"byteOffset":8,
		"byteLength":96,
		"byteStride":32
	}],
	"buffers":[{
		"uri":"data:application/octet-stream;base64,",
		"byteLength":640592
	},
	{
		"uri":"data:application/octet-stream;base64,",
		"byteLength":104
	}],
	"materials":[{
		"pbrMetallicRoughness":{
			"baseColorFactor":[0.2939771200324765,
			0.58,
			0.1508,
			1.0],
			"metallicFactor":1.0,
			"roughnessFactor":1.0
		},
		"emissiveFactor":[0.0,
		0.0,
		0.0],
		"alphaMode":"BLEND",
		"doubleSided":false,
		"name":"01___Default"
	},
	{
		"pbrMetallicRoughness":{
			"baseColorFactor":[0.1468749932289048,
			0.49,
			0.0,
			1.0],
			"metallicFactor":1.0,
			"roughnessFactor":1.0
		},
		"emissiveFactor":[0.023499999195337293,
		0.07840000092983246,
		0.0],
		"alphaMode":"BLEND",
		"doubleSided":false,
		"name":"04___Default"
	}]
}