{
	"asset":{
		"version":"2.0",
		"generator":"Created using the official Cinema 4D glTF Exporter 1.000x284978"
	},
	"scenes":[{
		"nodes":[0]
	}],
	"nodes":[{
		"name":"Null.1",
		"translation":[11.829511642456055,
		20.205692291259767,
		-247.9553985595703],
		"rotation":[0.0,
		0.0,
		0.0,
		-1.0],
		"scale":[1.0,
		1.0,
		1.0],
		"children":[1,
		8,
		10,
		12,
		14,
		16,
		18,
		20,
		22]
	},
	{
		"name":"star",
		"translation":[0.12386323511600495,
		4.662856578826904,
		0.40614810585975649],
		"rotation":[0.0,
		0.0,
		0.0,
		-1.0],
		"scale":[1.0,
		1.0,
		1.0],
		"children":[2,
		3,
		4,
		5,
		6,
		7]
	},
	{
		"name":"Default.5",
		"translation":[31.667322158813478,
		0.0,
		-6.966892242431641],
		"mesh":0,
		"rotation":[0.0,
		-0.06553579121828079,
		0.0,
		-0.997850239276886],
		"scale":[1.0,
		1.0,
		1.0]
	},
	{
		"name":"Default.2",
		"translation":[13.735150337219239,
		3.552713678800501e-15,
		-30.148494720458986],
		"mesh":1,
		"rotation":[0.0,
		-0.6087614297866821,
		0.0,
		-0.7933533191680908],
		"scale":[1.0,
		1.0,
		1.0]
	},
	{
		"name":"Default.4",
		"translation":[-34.120338439941409,
		0.0,
		4.413723468780518],
		"mesh":2,
		"rotation":[7.444391769695358e-9,
		-0.9991693496704102,
		-3.0361121949873395e-10,
		0.04075000807642937],
		"scale":[1.0,
		1.0,
		1.0]
	},
	{
		"name":"Default.3",
		"translation":[-19.63556480407715,
		0.0,
		-25.21269989013672],
		"mesh":3,
		"rotation":[0.0,
		-0.8720596432685852,
		0.0,
		-0.48939961194992068],
		"scale":[1.0,
		1.0,
		1.0]
	},
	{
		"name":"Default.1",
		"translation":[17.784515380859376,
		3.552713678800501e-15,
		25.29314422607422],
		"mesh":4,
		"rotation":[2.935749643384611e-9,
		-0.3940296471118927,
		-6.84781165105619e-9,
		0.9190977215766907],
		"scale":[1.0,
		1.0,
		1.0]
	},
	{
		"name":"Default",
		"translation":[-16.045251846313478,
		3.552713678800501e-15,
		25.701171875],
		"mesh":5,
		"rotation":[0.0,
		-0.7933533191680908,
		0.0,
		0.6087614297866821],
		"scale":[1.0,
		1.0,
		1.0]
	},
	{
		"name":"Null.8",
		"translation":[-8.327864646911621,
		12.307308197021485,
		-2.0610055923461916],
		"rotation":[0.0,
		-0.8662170171737671,
		0.0,
		-0.4996679127216339],
		"scale":[1.0,
		1.0,
		1.0],
		"children":[9]
	},
	{
		"name":"Default",
		"translation":[-36.82905578613281,
		-25.9273738861084,
		197.447265625],
		"mesh":6,
		"rotation":[0.0,
		0.0,
		0.0,
		-1.0],
		"scale":[1.0,
		1.0,
		1.0]
	},
	{
		"name":"Null.7",
		"translation":[13.697576522827149,
		-32.781368255615237,
		6.159600734710693],
		"rotation":[0.0,
		-0.9395614266395569,
		0.0,
		0.3423804044723511],
		"scale":[1.0,
		1.0,
		1.0],
		"children":[11]
	},
	{
		"name":"Default",
		"translation":[2.3877928256988527,
		19.16130256652832,
		-3.3931467533111574],
		"mesh":7,
		"rotation":[0.0,
		0.0,
		0.0,
		-1.0],
		"scale":[1.0,
		1.0,
		1.0]
	},
	{
		"name":"Null.6",
		"translation":[0.2804309129714966,
		4.640246391296387,
		2.0240678787231447],
		"rotation":[0.0,
		-0.5757999420166016,
		0.0,
		-0.817590594291687],
		"scale":[1.0,
		1.0,
		1.0],
		"children":[13]
	},
	{
		"name":"Default",
		"translation":[-13.28225326538086,
		-18.260311126708986,
		8.201993942260743],
		"mesh":8,
		"rotation":[0.0,
		0.0,
		0.0,
		-1.0],
		"scale":[1.0,
		1.0,
		1.0]
	},
	{
		"name":"Null.5",
		"translation":[3.447561025619507,
		9.371868133544922,
		4.626476287841797],
		"rotation":[0.0,
		-0.9964278340339661,
		0.0,
		-0.08444874733686447],
		"scale":[1.0,
		1.0,
		1.0],
		"children":[15]
	},
	{
		"name":"Default",
		"translation":[2.641179323196411,
		-32.41739273071289,
		-31.455873489379884],
		"mesh":9,
		"rotation":[0.0,
		0.0,
		0.0,
		-1.0],
		"scale":[1.0,
		1.0,
		1.0]
	},
	{
		"name":"Null.4",
		"translation":[9.853922843933106,
		27.949993133544923,
		-3.9935081005096437],
		"rotation":[0.0,
		-0.4247320890426636,
		0.0,
		0.905319094657898],
		"scale":[1.0,
		1.0,
		1.0],
		"children":[17]
	},
	{
		"name":"Default",
		"translation":[19.623241424560548,
		-41.5700569152832,
		35.12984085083008],
		"mesh":10,
		"rotation":[0.0,
		0.0,
		0.0,
		-1.0],
		"scale":[1.0,
		1.0,
		1.0]
	},
	{
		"name":"Null.3",
		"translation":[-6.618655204772949,
		6.103357315063477,
		5.120028495788574],
		"rotation":[0.0,
		-0.4205021560192108,
		0.0,
		-0.9072915315628052],
		"scale":[1.0,
		1.0,
		1.0],
		"children":[19]
	},
	{
		"name":"Default",
		"translation":[-3.999452590942383,
		1.2986619472503663,
		2.4443135261535646],
		"mesh":11,
		"rotation":[0.0,
		-0.157637819647789,
		0.0,
		0.9874969720840454],
		"scale":[1.0,
		1.0,
		1.0]
	},
	{
		"name":"Null.2",
		"translation":[-5.475399017333984,
		30.187429428100587,
		-6.062933444976807],
		"rotation":[0.0,
		-0.7439441680908203,
		0.0,
		0.6682417392730713],
		"scale":[1.0,
		1.0,
		1.0],
		"children":[21]
	},
	{
		"name":"Default",
		"translation":[7.647587299346924,
		-31.4420223236084,
		31.095888137817384],
		"mesh":12,
		"rotation":[0.0,
		0.0,
		0.0,
		-1.0],
		"scale":[1.0,
		1.0,
		1.0]
	},
	{
		"name":"Null.1",
		"translation":[-12.397696495056153,
		7.499831676483154,
		-0.560034990310669],
		"rotation":[0.0,
		0.0,
		0.0,
		-1.0],
		"scale":[1.0,
		1.0,
		1.0],
		"children":[23]
	},
	{
		"name":"Default",
		"translation":[-0.40676063299179079,
		-21.119895935058595,
		8.27502155303955],
		"mesh":13,
		"rotation":[0.0,
		0.0,
		0.0,
		-1.0],
		"scale":[1.0,
		1.0,
		1.0]
	}],
	"meshes":[{
		"name":"Default.5",
		"primitives":[{
			"attributes":{
				"POSITION":1
			},
			"indices":0,
			"material":0
		}]
	},
	{
		"name":"Default.2",
		"primitives":[{
			"attributes":{
				"POSITION":3
			},
			"indices":2,
			"material":0
		}]
	},
	{
		"name":"Default.4",
		"primitives":[{
			"attributes":{
				"POSITION":5
			},
			"indices":4,
			"material":0
		}]
	},
	{
		"name":"Default.3",
		"primitives":[{
			"attributes":{
				"POSITION":7
			},
			"indices":6,
			"material":0
		}]
	},
	{
		"name":"Default.1",
		"primitives":[{
			"attributes":{
				"POSITION":9
			},
			"indices":8,
			"material":0
		}]
	},
	{
		"name":"Default",
		"primitives":[{
			"attributes":{
				"POSITION":11
			},
			"indices":10,
			"material":0
		}]
	},
	{
		"name":"Default",
		"primitives":[{
			"attributes":{
				"POSITION":13
			},
			"indices":12,
			"material":1
		}]
	},
	{
		"name":"Default",
		"primitives":[{
			"attributes":{
				"POSITION":15
			},
			"indices":14,
			"material":1
		}]
	},
	{
		"name":"Default",
		"primitives":[{
			"attributes":{
				"POSITION":17
			},
			"indices":16,
			"material":1
		}]
	},
	{
		"name":"Default",
		"primitives":[{
			"attributes":{
				"POSITION":19
			},
			"indices":18,
			"material":1
		}]
	},
	{
		"name":"Default",
		"primitives":[{
			"attributes":{
				"POSITION":21
			},
			"indices":20,
			"material":1
		}]
	},
	{
		"name":"Default",
		"primitives":[{
			"attributes":{
				"POSITION":23
			},
			"indices":22,
			"material":1
		}]
	},
	{
		"name":"Default",
		"primitives":[{
			"attributes":{
				"POSITION":25
			},
			"indices":24,
			"material":1
		}]
	},
	{
		"name":"Default",
		"primitives":[{
			"attributes":{
				"POSITION":27
			},
			"indices":26,
			"material":1
		}]
	}],
	"accessors":[{
		"bufferView":0,
		"type":"SCALAR",
		"componentType":5123,
		"count":60,
		"byteOffset":0,
		"min":[0],
		"max":[11]
	},
	{
		"bufferView":1,
		"type":"VEC3",
		"componentType":5126,
		"count":12,
		"byteOffset":0,
		"min":[-7.120031356811523,
		-11.854581832885743,
		-12.031255722045899],
		"max":[7.197897434234619,
		14.001998901367188,
		14.852456092834473]
	},
	{
		"bufferView":2,
		"type":"SCALAR",
		"componentType":5123,
		"count":60,
		"byteOffset":0,
		"min":[0],
		"max":[11]
	},
	{
		"bufferView":3,
		"type":"VEC3",
		"componentType":5126,
		"count":12,
		"byteOffset":0,
		"min":[-7.120031356811523,
		-11.854581832885743,
		-12.031255722045899],
		"max":[7.197897434234619,
		14.001998901367188,
		14.852456092834473]
	},
	{
		"bufferView":4,
		"type":"SCALAR",
		"componentType":5123,
		"count":60,
		"byteOffset":0,
		"min":[0],
		"max":[11]
	},
	{
		"bufferView":5,
		"type":"VEC3",
		"componentType":5126,
		"count":12,
		"byteOffset":0,
		"min":[-7.120031356811523,
		-11.854581832885743,
		-12.031255722045899],
		"max":[7.197897434234619,
		14.001998901367188,
		14.852456092834473]
	},
	{
		"bufferView":6,
		"type":"SCALAR",
		"componentType":5123,
		"count":60,
		"byteOffset":0,
		"min":[0],
		"max":[11]
	},
	{
		"bufferView":7,
		"type":"VEC3",
		"componentType":5126,
		"count":12,
		"byteOffset":0,
		"min":[-7.120031356811523,
		-11.854581832885743,
		-12.031255722045899],
		"max":[7.197897434234619,
		14.001998901367188,
		14.852456092834473]
	},
	{
		"bufferView":8,
		"type":"SCALAR",
		"componentType":5123,
		"count":60,
		"byteOffset":0,
		"min":[0],
		"max":[11]
	},
	{
		"bufferView":9,
		"type":"VEC3",
		"componentType":5126,
		"count":12,
		"byteOffset":0,
		"min":[-7.120031356811523,
		-11.854581832885743,
		-12.031255722045899],
		"max":[7.197897434234619,
		14.001998901367188,
		14.852456092834473]
	},
	{
		"bufferView":10,
		"type":"SCALAR",
		"componentType":5123,
		"count":60,
		"byteOffset":0,
		"min":[0],
		"max":[11]
	},
	{
		"bufferView":11,
		"type":"VEC3",
		"componentType":5126,
		"count":12,
		"byteOffset":0,
		"min":[-7.120031356811523,
		-11.854581832885743,
		-12.031255722045899],
		"max":[7.197897434234619,
		14.001998901367188,
		14.852456092834473]
	},
	{
		"bufferView":12,
		"type":"SCALAR",
		"componentType":5123,
		"count":4680,
		"byteOffset":0,
		"min":[0],
		"max":[787]
	},
	{
		"bufferView":13,
		"type":"VEC3",
		"componentType":5126,
		"count":788,
		"byteOffset":0,
		"min":[17.21875,
		11.57810115814209,
		-195.28167724609376],
		"max":[50.42241287231445,
		96.36267852783203,
		-113.75823211669922]
	},
	{
		"bufferView":14,
		"type":"SCALAR",
		"componentType":5123,
		"count":4680,
		"byteOffset":0,
		"min":[0],
		"max":[787]
	},
	{
		"bufferView":15,
		"type":"VEC3",
		"componentType":5126,
		"count":788,
		"byteOffset":0,
		"min":[-4.493459701538086,
		11.57810115814209,
		31.38387107849121],
		"max":[36.91543197631836,
		96.36267852783203,
		109.73858642578125]
	},
	{
		"bufferView":16,
		"type":"SCALAR",
		"componentType":5123,
		"count":4680,
		"byteOffset":0,
		"min":[0],
		"max":[787]
	},
	{
		"bufferView":17,
		"type":"VEC3",
		"componentType":5126,
		"count":788,
		"byteOffset":0,
		"min":[14.810442924499512,
		11.57810115814209,
		-8.023534774780274],
		"max":[51.20445251464844,
		96.36267852783203,
		77.15721893310547]
	},
	{
		"bufferView":18,
		"type":"SCALAR",
		"componentType":5123,
		"count":4680,
		"byteOffset":0,
		"min":[0],
		"max":[787]
	},
	{
		"bufferView":19,
		"type":"VEC3",
		"componentType":5126,
		"count":788,
		"byteOffset":0,
		"min":[-12.882097244262696,
		21.00356101989746,
		50.84318161010742],
		"max":[26.71772575378418,
		105.78813934326172,
		121.91328430175781]
	},
	{
		"bufferView":20,
		"type":"SCALAR",
		"componentType":5123,
		"count":4680,
		"byteOffset":0,
		"min":[0],
		"max":[787]
	},
	{
		"bufferView":21,
		"type":"VEC3",
		"componentType":5126,
		"count":788,
		"byteOffset":0,
		"min":[-39.42599105834961,
		11.57810115814209,
		-25.131601333618165],
		"max":[-5.35527229309082,
		96.36267852783203,
		53.864837646484378]
	},
	{
		"bufferView":22,
		"type":"SCALAR",
		"componentType":5123,
		"count":4680,
		"byteOffset":0,
		"min":[0],
		"max":[787]
	},
	{
		"bufferView":23,
		"type":"VEC3",
		"componentType":5126,
		"count":788,
		"byteOffset":0,
		"min":[4.034714221954346,
		-9.44398307800293,
		2.562943458557129],
		"max":[45.96500015258789,
		75.34059143066406,
		78.68968963623047]
	},
	{
		"bufferView":24,
		"type":"SCALAR",
		"componentType":5123,
		"count":4680,
		"byteOffset":0,
		"min":[0],
		"max":[787]
	},
	{
		"bufferView":25,
		"type":"VEC3",
		"componentType":5126,
		"count":788,
		"byteOffset":0,
		"min":[-7.434365272521973,
		-0.787369430065155,
		-25.474822998046876],
		"max":[26.950538635253908,
		83.99720764160156,
		60.659271240234378]
	},
	{
		"bufferView":26,
		"type":"SCALAR",
		"componentType":5123,
		"count":4680,
		"byteOffset":0,
		"min":[0],
		"max":[787]
	},
	{
		"bufferView":27,
		"type":"VEC3",
		"componentType":5126,
		"count":788,
		"byteOffset":0,
		"min":[-4.0099639892578129,
		11.57810115814209,
		6.100327491760254],
		"max":[36.551544189453128,
		96.36267852783203,
		77.07581329345703]
	}],
	"bufferViews":[{
		"buffer":0,
		"byteOffset":0,
		"byteLength":120,
		"target":34963
	},
	{
		"buffer":0,
		"byteOffset":120,
		"byteLength":144,
		"target":34962
	},
	{
		"buffer":1,
		"byteOffset":0,
		"byteLength":120,
		"target":34963
	},
	{
		"buffer":1,
		"byteOffset":120,
		"byteLength":144,
		"target":34962
	},
	{
		"buffer":2,
		"byteOffset":0,
		"byteLength":120,
		"target":34963
	},
	{
		"buffer":2,
		"byteOffset":120,
		"byteLength":144,
		"target":34962
	},
	{
		"buffer":3,
		"byteOffset":0,
		"byteLength":120,
		"target":34963
	},
	{
		"buffer":3,
		"byteOffset":120,
		"byteLength":144,
		"target":34962
	},
	{
		"buffer":4,
		"byteOffset":0,
		"byteLength":120,
		"target":34963
	},
	{
		"buffer":4,
		"byteOffset":120,
		"byteLength":144,
		"target":34962
	},
	{
		"buffer":5,
		"byteOffset":0,
		"byteLength":120,
		"target":34963
	},
	{
		"buffer":5,
		"byteOffset":120,
		"byteLength":144,
		"target":34962
	},
	{
		"buffer":6,
		"byteOffset":0,
		"byteLength":9360,
		"target":34963
	},
	{
		"buffer":6,
		"byteOffset":9360,
		"byteLength":9456,
		"target":34962
	},
	{
		"buffer":7,
		"byteOffset":0,
		"byteLength":9360,
		"target":34963
	},
	{
		"buffer":7,
		"byteOffset":9360,
		"byteLength":9456,
		"target":34962
	},
	{
		"buffer":8,
		"byteOffset":0,
		"byteLength":9360,
		"target":34963
	},
	{
		"buffer":8,
		"byteOffset":9360,
		"byteLength":9456,
		"target":34962
	},
	{
		"buffer":9,
		"byteOffset":0,
		"byteLength":9360,
		"target":34963
	},
	{
		"buffer":9,
		"byteOffset":9360,
		"byteLength":9456,
		"target":34962
	},
	{
		"buffer":10,
		"byteOffset":0,
		"byteLength":9360,
		"target":34963
	},
	{
		"buffer":10,
		"byteOffset":9360,
		"byteLength":9456,
		"target":34962
	},
	{
		"buffer":11,
		"byteOffset":0,
		"byteLength":9360,
		"target":34963
	},
	{
		"buffer":11,
		"byteOffset":9360,
		"byteLength":9456,
		"target":34962
	},
	{
		"buffer":12,
		"byteOffset":0,
		"byteLength":9360,
		"target":34963
	},
	{
		"buffer":12,
		"byteOffset":9360,
		"byteLength":9456,
		"target":34962
	},
	{
		"buffer":13,
		"byteOffset":0,
		"byteLength":9360,
		"target":34963
	},
	{
		"buffer":13,
		"byteOffset":9360,
		"byteLength":9456,
		"target":34962
	}],
	"buffers":[{
		"uri":"data:application/octet-stream;base64,",
		"byteLength":264
	},
	{
		"uri":"data:application/octet-stream;base64,",
		"byteLength":264
	},
	{
		"uri":"data:application/octet-stream;base64,",
		"byteLength":264
	},
	{
		"uri":"data:application/octet-stream;base64,",
		"byteLength":264
	},
	{
		"uri":"data:application/octet-stream;base64,",
		"byteLength":264
	},
	{
		"uri":"data:application/octet-stream;base64,",
		"byteLength":264
	},
	{
		"uri":"data:application/octet-stream;base64,",
		"byteLength":18816
	},
	{
		"uri":"data:application/octet-stream;base64,",
		"byteLength":18816
	},
	{
		"uri":"data:application/octet-stream;base64,",
		"byteLength":18816
	},
	{
		"uri":"data:application/octet-stream;base64,",
		"byteLength":18816
	},
	{
		"uri":"data:application/octet-stream;base64,",
		"byteLength":18816
	},
	{
		"uri":"data:application/octet-stream;base64,",
		"byteLength":18816
	},
	{
		"uri":"data:application/octet-stream;base64,",
		"byteLength":18816
	},
	{
		"uri":"data:application/octet-stream;base64,",
		"byteLength":18816
	}],
	"materials":[{
		"pbrMetallicRoughness":{
			"baseColorFactor":[1.0,
			0.8185000000000002,
			0.010000000000000009,
			1.0],
			"metallicFactor":0.0,
			"roughnessFactor":0.5
		},
		"emissiveFactor":[0.0,
		0.0,
		0.0],
		"alphaMode":"OPAQUE",
		"doubleSided":false,
		"name":"Mat.1"
	},
	{
		"pbrMetallicRoughness":{
			"baseColorFactor":[0.30000001192092898,
			0.6899999976158142,
			0.3100000023841858,
			1.0],
			"metallicFactor":0.0,
			"roughnessFactor":0.5
		},
		"emissiveFactor":[0.0,
		0.0,
		0.0],
		"alphaMode":"OPAQUE",
		"doubleSided":false,
		"name":"mat10"
	}]
}