{
	"asset":{
		"version":"2.0",
		"generator":"Created using the official Cinema 4D glTF Exporter 1.000x284978"
	},
	"scenes":[{
		"nodes":[0]
	}],
	"nodes":[{
		"name":"Null",
		"translation":[5.384317398071289,
		37.296390533447269,
		-4.197896480560303],
		"rotation":[0.0,
		0.0,
		0.0,
		-1.0],
		"scale":[1.0,
		1.0,
		1.0],
		"children":[1]
	},
	{
		"name":"Default",
		"translation":[-5.384317398071289,
		-24.17665672302246,
		4.197896480560303],
		"rotation":[0.0,
		0.0,
		0.0,
		-1.0],
		"scale":[1.0,
		1.0,
		1.0],
		"mesh":0
	}],
	"meshes":[{
		"name":"Default",
		"primitives":[{
			"attributes":{
				"POSITION":1
			},
			"indices":0,
			"material":0
		}]
	}],
	"accessors":[{
		"bufferView":0,
		"type":"SCALAR",
		"componentType":5123,
		"byteOffset":0,
		"count":38571,
		"min":[0],
		"max":[6513]
	},
	{
		"bufferView":1,
		"type":"VEC3",
		"componentType":5126,
		"byteOffset":0,
		"count":6514,
		"min":[-37.42273712158203,
		5.72930908203125,
		-65.42474365234375],
		"max":[57.58863830566406,
		59.89695739746094,
		50.425880432128909]
	}],
	"bufferViews":[{
		"target":34963,
		"buffer":0,
		"byteOffset":0,
		"byteLength":77142
	},
	{
		"target":34962,
		"buffer":0,
		"byteOffset":77144,
		"byteLength":78168
	}],
	"buffers":[{
		"uri":"data:application/octet-stream;base64,",
		"byteLength":155312
	}],
	"materials":[{
		"pbrMetallicRoughness":{
			"baseColorFactor":[0.30000001192092898,
			0.6899999976158142,
			0.3100000023841858,
			1.0],
			"metallicFactor":0.0,
			"roughnessFactor":0.5
		},
		"emissiveFactor":[0.0,
		0.0,
		0.0],
		"alphaMode":"OPAQUE",
		"doubleSided":false,
		"name":"mat10"
	}]
}