{
	"asset":{
		"version":"2.0",
		"generator":"Created using the official Cinema 4D glTF Exporter 1.000x284978"
	},
	"scenes":[{
		"nodes":[0]
	}],
	"nodes":[{
		"name":"log",
		"mesh":0
	}],
	"meshes":[{
		"name":"log",
		"primitives":[{
			"attributes":{
				"POSITION":1
			},
			"indices":0,
			"material":0
		}]
	}],
	"buffers":[{
		"uri":"data:application/octet-stream;base64,",
		"byteLength":3828
	}],
	"accessors":[{
		"bufferView":0,
		"type":"SCALAR",
		"componentType":5123,
		"count":930,
		"byteOffset":0,
		"min":[0],
		"max":[163]
	},
	{
		"bufferView":1,
		"type":"VEC3",
		"componentType":5126,
		"count":164,
		"byteOffset":0,
		"min":[-1.520751953125,
		-0.5340930223464966,
		-0.6314899921417236],
		"max":[1.6013590097427369,
		0.9335430264472961,
		0.7416170239448547]
	}],
	"bufferViews":[{
		"buffer":0,
		"target":34963,
		"byteOffset":0,
		"byteLength":1860
	},
	{
		"buffer":0,
		"target":34962,
		"byteOffset":1860,
		"byteLength":1968
	}],
	"materials":[{
		"pbrMetallicRoughness":{
			"baseColorFactor":[0.61,
			0.37474333333333345,
			0.06709999999999999,
			1.0],
			"metallicFactor":1.0,
			"roughnessFactor":1.0
		},
		"emissiveFactor":[0.0,
		0.0,
		0.0],
		"alphaMode":"OPAQUE",
		"doubleSided":false,
		"name":"Mat"
	}]
}