{
	"asset":{
		"version":"2.0",
		"generator":"Created using the official Cinema 4D glTF Exporter 1.000x284978"
	},
	"scenes":[{
		"nodes":[0]
	}],
	"nodes":[{
		"name":"log",
		"children":[1,
		2,
		3,
		4,
		5,
		6,
		7,
		8,
		9,
		10,
		11,
		12]
	},
	{
		"name":"log-Mat.2",
		"mesh":0
	},
	{
		"name":"log-Mat.2",
		"mesh":1
	},
	{
		"name":"log-Mat",
		"mesh":2
	},
	{
		"name":"log-Mat.2",
		"mesh":3
	},
	{
		"name":"log-Mat.2",
		"mesh":4
	},
	{
		"name":"log-Mat.2",
		"mesh":5
	},
	{
		"name":"log-Mat.2",
		"mesh":6
	},
	{
		"name":"log-Mat.1",
		"mesh":7
	},
	{
		"name":"log-Mat.2",
		"mesh":8
	},
	{
		"name":"log-Mat.2",
		"mesh":9
	},
	{
		"name":"log-Mat.1",
		"mesh":10
	},
	{
		"name":"log-Mat.1",
		"mesh":11
	}],
	"meshes":[{
		"name":"log-Mat.2",
		"primitives":[{
			"attributes":{
				"POSITION":1,
				"NORMAL":2,
				"TEXCOORD_0":3
			},
			"indices":0,
			"material":0
		}]
	},
	{
		"name":"log-Mat.2",
		"primitives":[{
			"attributes":{
				"POSITION":5,
				"NORMAL":6,
				"TEXCOORD_0":7
			},
			"indices":4,
			"material":0
		}]
	},
	{
		"name":"log-Mat",
		"primitives":[{
			"attributes":{
				"POSITION":9,
				"NORMAL":10,
				"TEXCOORD_0":11
			},
			"indices":8,
			"material":1
		}]
	},
	{
		"name":"log-Mat.2",
		"primitives":[{
			"attributes":{
				"POSITION":13,
				"NORMAL":14,
				"TEXCOORD_0":15
			},
			"indices":12,
			"material":0
		}]
	},
	{
		"name":"log-Mat.2",
		"primitives":[{
			"attributes":{
				"POSITION":17,
				"NORMAL":18,
				"TEXCOORD_0":19
			},
			"indices":16,
			"material":0
		}]
	},
	{
		"name":"log-Mat.2",
		"primitives":[{
			"attributes":{
				"POSITION":21,
				"NORMAL":22,
				"TEXCOORD_0":23
			},
			"indices":20,
			"material":0
		}]
	},
	{
		"name":"log-Mat.2",
		"primitives":[{
			"attributes":{
				"POSITION":25,
				"NORMAL":26,
				"TEXCOORD_0":27
			},
			"indices":24,
			"material":0
		}]
	},
	{
		"name":"log-Mat.1",
		"primitives":[{
			"attributes":{
				"POSITION":29,
				"NORMAL":30,
				"TEXCOORD_0":31
			},
			"indices":28,
			"material":2
		}]
	},
	{
		"name":"log-Mat.2",
		"primitives":[{
			"attributes":{
				"POSITION":33,
				"NORMAL":34,
				"TEXCOORD_0":35
			},
			"indices":32,
			"material":0
		}]
	},
	{
		"name":"log-Mat.2",
		"primitives":[{
			"attributes":{
				"POSITION":37,
				"NORMAL":38,
				"TEXCOORD_0":39
			},
			"indices":36,
			"material":0
		}]
	},
	{
		"name":"log-Mat.1",
		"primitives":[{
			"attributes":{
				"POSITION":41,
				"NORMAL":42,
				"TEXCOORD_0":43
			},
			"indices":40,
			"material":2
		}]
	},
	{
		"name":"log-Mat.1",
		"primitives":[{
			"attributes":{
				"POSITION":45,
				"NORMAL":46,
				"TEXCOORD_0":47
			},
			"indices":44,
			"material":2
		}]
	}],
	"buffers":[{
		"uri":"data:application/octet-stream;base64,",
		"byteLength":12056
	},
	{
		"uri":"data:application/octet-stream;base64,",
		"byteLength":280
	},
	{
		"uri":"data:application/octet-stream;base64,",
		"byteLength":1288
	},
	{
		"uri":"data:application/octet-stream;base64,",
		"byteLength":664
	},
	{
		"uri":"data:application/octet-stream;base64,",
		"byteLength":280
	},
	{
		"uri":"data:application/octet-stream;base64,",
		"byteLength":140
	},
	{
		"uri":"data:application/octet-stream;base64,",
		"byteLength":140
	},
	{
		"uri":"data:application/octet-stream;base64,",
		"byteLength":460
	},
	{
		"uri":"data:application/octet-stream;base64,",
		"byteLength":104
	},
	{
		"uri":"data:application/octet-stream;base64,",
		"byteLength":4164
	},
	{
		"uri":"data:application/octet-stream;base64,",
		"byteLength":816
	},
	{
		"uri":"data:application/octet-stream;base64,",
		"byteLength":2216
	}],
	"accessors":[{
		"bufferView":0,
		"type":"SCALAR",
		"componentType":5123,
		"count":507,
		"byteOffset":0,
		"min":[0],
		"max":[344]
	},
	{
		"bufferView":1,
		"type":"VEC3",
		"componentType":5126,
		"count":345,
		"byteOffset":0,
		"min":[-1.520751953125,
		-0.5340930223464966,
		-0.6314899921417236],
		"max":[1.6013590097427369,
		0.9335430264472961,
		0.7209020256996155]
	},
	{
		"bufferView":1,
		"type":"VEC3",
		"componentType":5126,
		"count":345,
		"byteOffset":12,
		"min":[-0.9907500743865967,
		-0.9524688124656677,
		-0.9908750653266907],
		"max":[0.9846875667572022,
		0.9841563105583191,
		0.9998750686645508]
	},
	{
		"bufferView":1,
		"type":"VEC2",
		"componentType":5126,
		"count":345,
		"byteOffset":24,
		"min":[0.025200000032782556,
		0.023099999874830247],
		"max":[0.9789999723434448,
		0.9742000102996826]
	},
	{
		"bufferView":2,
		"type":"SCALAR",
		"componentType":5123,
		"count":12,
		"byteOffset":0,
		"min":[0],
		"max":[7]
	},
	{
		"bufferView":3,
		"type":"VEC3",
		"componentType":5126,
		"count":8,
		"byteOffset":0,
		"min":[-1.341681957244873,
		-0.441895991563797,
		-0.46467098593711855],
		"max":[-1.2556359767913819,
		-0.11569999903440476,
		-0.0413610003888607]
	},
	{
		"bufferView":3,
		"type":"VEC3",
		"componentType":5126,
		"count":8,
		"byteOffset":12,
		"min":[-0.9662500619888306,
		0.25737500190734866,
		0.0025625000707805158],
		"max":[-0.9662187695503235,
		0.2574687600135803,
		0.0025625000707805158]
	},
	{
		"bufferView":3,
		"type":"VEC2",
		"componentType":5126,
		"count":8,
		"byteOffset":24,
		"min":[0.8874999284744263,
		0.06389999389648438],
		"max":[0.9505000114440918,
		0.8602999448776245]
	},
	{
		"bufferView":4,
		"type":"SCALAR",
		"componentType":5123,
		"count":51,
		"byteOffset":0,
		"min":[0],
		"max":[36]
	},
	{
		"bufferView":5,
		"type":"VEC3",
		"componentType":5126,
		"count":37,
		"byteOffset":0,
		"min":[-1.341681957244873,
		-0.5159299969673157,
		-0.30724701285362246],
		"max":[1.5070630311965943,
		0.4139629900455475,
		0.028831999748945237]
	},
	{
		"bufferView":5,
		"type":"VEC3",
		"componentType":5126,
		"count":37,
		"byteOffset":12,
		"min":[-0.1469687521457672,
		-0.9520313143730164,
		-0.9882813096046448],
		"max":[0.4265937805175781,
		0.9526875615119934,
		0.37331250309944155]
	},
	{
		"bufferView":5,
		"type":"VEC2",
		"componentType":5126,
		"count":37,
		"byteOffset":24,
		"min":[0.025199998170137407,
		0.07349999248981476],
		"max":[0.9645000100135803,
		0.9742000102996826]
	},
	{
		"bufferView":6,
		"type":"SCALAR",
		"componentType":5123,
		"count":27,
		"byteOffset":0,
		"min":[0],
		"max":[18]
	},
	{
		"bufferView":7,
		"type":"VEC3",
		"componentType":5126,
		"count":19,
		"byteOffset":0,
		"min":[-1.261093020439148,
		-0.3342300057411194,
		0.11482299864292145],
		"max":[0.6537550091743469,
		0.12082599848508835,
		0.377685010433197]
	},
	{
		"bufferView":7,
		"type":"VEC3",
		"componentType":5126,
		"count":19,
		"byteOffset":12,
		"min":[-0.08737500756978989,
		-0.3902812600135803,
		0.8443750143051148],
		"max":[0.24318751692771913,
		0.47725000977516177,
		0.9915937781333923]
	},
	{
		"bufferView":7,
		"type":"VEC2",
		"componentType":5126,
		"count":19,
		"byteOffset":24,
		"min":[0.07959999889135361,
		0.0656999945640564],
		"max":[0.7928000092506409,
		0.7876999378204346]
	},
	{
		"bufferView":8,
		"type":"SCALAR",
		"componentType":5123,
		"count":12,
		"byteOffset":0,
		"min":[0],
		"max":[7]
	},
	{
		"bufferView":9,
		"type":"VEC3",
		"componentType":5126,
		"count":8,
		"byteOffset":0,
		"min":[0.6537550091743469,
		-0.33964401483535769,
		0.12911899387836457],
		"max":[1.6013590097427369,
		-0.09750699996948242,
		0.22306500375270844]
	},
	{
		"bufferView":9,
		"type":"VEC3",
		"componentType":5126,
		"count":8,
		"byteOffset":12,
		"min":[-0.140625,
		-0.06465625017881394,
		0.982843816280365],
		"max":[0.17253126204013825,
		0.01600000075995922,
		0.9898750185966492]
	},
	{
		"bufferView":9,
		"type":"VEC2",
		"componentType":5126,
		"count":8,
		"byteOffset":24,
		"min":[0.47929996252059939,
		0.2515999674797058],
		"max":[0.7548999786376953,
		0.9742000102996826]
	},
	{
		"bufferView":10,
		"type":"SCALAR",
		"componentType":5123,
		"count":6,
		"byteOffset":0,
		"min":[0],
		"max":[3]
	},
	{
		"bufferView":11,
		"type":"VEC3",
		"componentType":5126,
		"count":4,
		"byteOffset":0,
		"min":[0.2285739928483963,
		-0.252903014421463,
		0.11482299864292145],
		"max":[0.6685450077056885,
		-0.09750699996948242,
		0.15810899436473847]
	},
	{
		"bufferView":11,
		"type":"VEC3",
		"componentType":5126,
		"count":4,
		"byteOffset":12,
		"min":[-0.04071875289082527,
		-0.16075000166893006,
		0.9861875176429749],
		"max":[-0.04071875289082527,
		-0.16075000166893006,
		0.9861875176429749]
	},
	{
		"bufferView":11,
		"type":"VEC2",
		"componentType":5126,
		"count":4,
		"byteOffset":24,
		"min":[0.7245999574661255,
		0.4413999915122986],
		"max":[0.7620999813079834,
		0.5578999519348145]
	},
	{
		"bufferView":12,
		"type":"SCALAR",
		"componentType":5123,
		"count":6,
		"byteOffset":0,
		"min":[0],
		"max":[3]
	},
	{
		"bufferView":13,
		"type":"VEC3",
		"componentType":5126,
		"count":4,
		"byteOffset":0,
		"min":[-0.356128990650177,
		0.6685720086097717,
		0.5499200224876404],
		"max":[-0.07239899784326554,
		0.9027789831161499,
		0.7416170239448547]
	},
	{
		"bufferView":13,
		"type":"VEC3",
		"componentType":5126,
		"count":4,
		"byteOffset":12,
		"min":[-0.16731250286102296,
		-0.7099375128746033,
		0.6840000152587891],
		"max":[-0.16731250286102296,
		-0.7099375128746033,
		0.6840000152587891]
	},
	{
		"bufferView":13,
		"type":"VEC2",
		"componentType":5126,
		"count":4,
		"byteOffset":24,
		"min":[0.9249999523162842,
		0.03700000047683716],
		"max":[0.9392999410629273,
		0.13589999079704286]
	},
	{
		"bufferView":14,
		"type":"SCALAR",
		"componentType":5123,
		"count":21,
		"byteOffset":0,
		"min":[0],
		"max":[12]
	},
	{
		"bufferView":15,
		"type":"VEC3",
		"componentType":5126,
		"count":13,
		"byteOffset":0,
		"min":[-0.35638201236724856,
		0.6815099716186523,
		0.4855310022830963],
		"max":[-0.04470900073647499,
		0.9335430264472961,
		0.7416170239448547]
	},
	{
		"bufferView":15,
		"type":"VEC3",
		"componentType":5126,
		"count":13,
		"byteOffset":12,
		"min":[-0.7673437595367432,
		0.18646876513957978,
		-0.1742812544107437],
		"max":[0.6460312604904175,
		0.8408750295639038,
		0.7400937676429749]
	},
	{
		"bufferView":15,
		"type":"VEC2",
		"componentType":5126,
		"count":13,
		"byteOffset":24,
		"min":[0.24869999289512635,
		0.4049000144004822],
		"max":[0.9545000195503235,
		0.6543999910354614]
	},
	{
		"bufferView":16,
		"type":"SCALAR",
		"componentType":5123,
		"count":3,
		"byteOffset":0,
		"min":[0],
		"max":[2]
	},
	{
		"bufferView":17,
		"type":"VEC3",
		"componentType":5126,
		"count":3,
		"byteOffset":0,
		"min":[-0.9108359813690186,
		0.041985999792814258,
		0.017674999311566354],
		"max":[-0.5013290047645569,
		0.16508199274539948,
		0.36146700382232668]
	},
	{
		"bufferView":17,
		"type":"VEC3",
		"componentType":5126,
		"count":3,
		"byteOffset":12,
		"min":[-0.2252500057220459,
		0.9710937738418579,
		0.07925000041723252],
		"max":[-0.2252500057220459,
		0.9710937738418579,
		0.07925000041723252]
	},
	{
		"bufferView":17,
		"type":"VEC2",
		"componentType":5126,
		"count":3,
		"byteOffset":24,
		"min":[0.8033000230789185,
		0.2732999920845032],
		"max":[0.8281999826431274,
		0.4171000123023987]
	},
	{
		"bufferView":18,
		"type":"SCALAR",
		"componentType":5123,
		"count":177,
		"byteOffset":0,
		"min":[0],
		"max":[118]
	},
	{
		"bufferView":19,
		"type":"VEC3",
		"componentType":5126,
		"count":119,
		"byteOffset":0,
		"min":[-1.520751953125,
		-0.5340930223464966,
		-0.5167109966278076],
		"max":[1.549697995185852,
		0.5025200247764587,
		0.423022985458374]
	},
	{
		"bufferView":19,
		"type":"VEC3",
		"componentType":5126,
		"count":119,
		"byteOffset":12,
		"min":[-0.9793750643730164,
		-0.9502813220024109,
		-0.9998750686645508],
		"max":[0.41859376430511477,
		0.9512500166893005,
		0.9726563096046448]
	},
	{
		"bufferView":19,
		"type":"VEC2",
		"componentType":5126,
		"count":119,
		"byteOffset":24,
		"min":[0.025199998170137407,
		0.022199999541044236],
		"max":[0.9742000102996826,
		0.8675999641418457]
	},
	{
		"bufferView":20,
		"type":"SCALAR",
		"componentType":5123,
		"count":24,
		"byteOffset":0,
		"min":[0],
		"max":[23]
	},
	{
		"bufferView":21,
		"type":"VEC3",
		"componentType":5126,
		"count":24,
		"byteOffset":0,
		"min":[-1.313722014427185,
		-0.3369469940662384,
		-0.36305201053619387],
		"max":[-1.1416319608688355,
		0.3090139925479889,
		0.2741590142250061]
	},
	{
		"bufferView":21,
		"type":"VEC3",
		"componentType":5126,
		"count":24,
		"byteOffset":12,
		"min":[-0.9662500619888306,
		0.25737500190734866,
		0.0025625000707805158],
		"max":[-0.9662187695503235,
		0.2574687600135803,
		0.0025625000707805158]
	},
	{
		"bufferView":21,
		"type":"VEC2",
		"componentType":5126,
		"count":24,
		"byteOffset":24,
		"min":[0.1867000013589859,
		0.24410000443458558],
		"max":[0.9401999711990356,
		0.9742000102996826]
	},
	{
		"bufferView":22,
		"type":"SCALAR",
		"componentType":5123,
		"count":84,
		"byteOffset":0,
		"min":[0],
		"max":[63]
	},
	{
		"bufferView":23,
		"type":"VEC3",
		"componentType":5126,
		"count":64,
		"byteOffset":0,
		"min":[1.4554040431976319,
		-0.47330400347709658,
		-0.23145100474357606],
		"max":[1.6013590097427369,
		-0.07229200005531311,
		0.13732999563217164]
	},
	{
		"bufferView":23,
		"type":"VEC3",
		"componentType":5126,
		"count":64,
		"byteOffset":12,
		"min":[0.9325000643730164,
		0.12159375846385956,
		-0.3401562571525574],
		"max":[0.9325000643730164,
		0.12168750911951065,
		-0.3400937616825104]
	},
	{
		"bufferView":23,
		"type":"VEC2",
		"componentType":5126,
		"count":64,
		"byteOffset":24,
		"min":[0.08900000154972077,
		0.020500000566244127],
		"max":[0.9643999934196472,
		0.909500002861023]
	}],
	"bufferViews":[{
		"buffer":0,
		"target":34963,
		"byteOffset":0,
		"byteLength":1014
	},
	{
		"buffer":0,
		"target":34962,
		"byteOffset":1016,
		"byteLength":11040,
		"byteStride":32
	},
	{
		"buffer":1,
		"target":34963,
		"byteOffset":0,
		"byteLength":24
	},
	{
		"buffer":1,
		"target":34962,
		"byteOffset":24,
		"byteLength":256,
		"byteStride":32
	},
	{
		"buffer":2,
		"target":34963,
		"byteOffset":0,
		"byteLength":102
	},
	{
		"buffer":2,
		"target":34962,
		"byteOffset":104,
		"byteLength":1184,
		"byteStride":32
	},
	{
		"buffer":3,
		"target":34963,
		"byteOffset":0,
		"byteLength":54
	},
	{
		"buffer":3,
		"target":34962,
		"byteOffset":56,
		"byteLength":608,
		"byteStride":32
	},
	{
		"buffer":4,
		"target":34963,
		"byteOffset":0,
		"byteLength":24
	},
	{
		"buffer":4,
		"target":34962,
		"byteOffset":24,
		"byteLength":256,
		"byteStride":32
	},
	{
		"buffer":5,
		"target":34963,
		"byteOffset":0,
		"byteLength":12
	},
	{
		"buffer":5,
		"target":34962,
		"byteOffset":12,
		"byteLength":128,
		"byteStride":32
	},
	{
		"buffer":6,
		"target":34963,
		"byteOffset":0,
		"byteLength":12
	},
	{
		"buffer":6,
		"target":34962,
		"byteOffset":12,
		"byteLength":128,
		"byteStride":32
	},
	{
		"buffer":7,
		"target":34963,
		"byteOffset":0,
		"byteLength":42
	},
	{
		"buffer":7,
		"target":34962,
		"byteOffset":44,
		"byteLength":416,
		"byteStride":32
	},
	{
		"buffer":8,
		"target":34963,
		"byteOffset":0,
		"byteLength":6
	},
	{
		"buffer":8,
		"target":34962,
		"byteOffset":8,
		"byteLength":96,
		"byteStride":32
	},
	{
		"buffer":9,
		"target":34963,
		"byteOffset":0,
		"byteLength":354
	},
	{
		"buffer":9,
		"target":34962,
		"byteOffset":356,
		"byteLength":3808,
		"byteStride":32
	},
	{
		"buffer":10,
		"target":34963,
		"byteOffset":0,
		"byteLength":48
	},
	{
		"buffer":10,
		"target":34962,
		"byteOffset":48,
		"byteLength":768,
		"byteStride":32
	},
	{
		"buffer":11,
		"target":34963,
		"byteOffset":0,
		"byteLength":168
	},
	{
		"buffer":11,
		"target":34962,
		"byteOffset":168,
		"byteLength":2048,
		"byteStride":32
	}],
	"materials":[{
		"pbrMetallicRoughness":{
			"baseColorFactor":[0.5,
			0.3049999999999998,
			0.04999999999999999,
			1.0],
			"metallicFactor":1.0,
			"roughnessFactor":1.0
		},
		"emissiveFactor":[0.0,
		0.0,
		0.0],
		"alphaMode":"OPAQUE",
		"doubleSided":false,
		"name":"Mat.2"
	},
	{
		"pbrMetallicRoughness":{
			"baseColorFactor":[0.61,
			0.37474333333333345,
			0.06709999999999999,
			1.0],
			"metallicFactor":1.0,
			"roughnessFactor":1.0
		},
		"emissiveFactor":[0.0,
		0.0,
		0.0],
		"alphaMode":"OPAQUE",
		"doubleSided":false,
		"name":"Mat"
	},
	{
		"pbrMetallicRoughness":{
			"baseColorFactor":[0.8,
			0.6162666666666669,
			0.376,
			1.0],
			"metallicFactor":1.0,
			"roughnessFactor":1.0
		},
		"emissiveFactor":[0.0,
		0.0,
		0.0],
		"alphaMode":"OPAQUE",
		"doubleSided":false,
		"name":"Mat.1"
	}]
}