{
	"asset":{
		"version":"2.0",
		"generator":"Created using the official Cinema 4D glTF Exporter 1.000x284978"
	},
	"scenes":[{
		"nodes":[0]
	}],
	"nodes":[{
		"name":"Default",
		"children":[1,
		2,
		3,
		4,
		5,
		6,
		7,
		8,
		9]
	},
	{
		"name":"Default-Mat",
		"mesh":0
	},
	{
		"name":"Default-Mat.1",
		"mesh":1
	},
	{
		"name":"Default-Mat.3",
		"mesh":2
	},
	{
		"name":"Default-Mat.1",
		"mesh":3
	},
	{
		"name":"Default-Mat.1",
		"mesh":4
	},
	{
		"name":"Default-Mat.1",
		"mesh":5
	},
	{
		"name":"Default-Mat",
		"mesh":6
	},
	{
		"name":"Default-Mat.2",
		"mesh":7
	},
	{
		"name":"Default-Mat.2",
		"mesh":8
	}],
	"meshes":[{
		"name":"Default-Mat",
		"primitives":[{
			"attributes":{
				"POSITION":1,
				"NORMAL":2,
				"TEXCOORD_0":3
			},
			"indices":0,
			"material":0
		}]
	},
	{
		"name":"Default-Mat.1",
		"primitives":[{
			"attributes":{
				"POSITION":5,
				"NORMAL":6,
				"TEXCOORD_0":7
			},
			"indices":4,
			"material":1
		}]
	},
	{
		"name":"Default-Mat.3",
		"primitives":[{
			"attributes":{
				"POSITION":9,
				"NORMAL":10,
				"TEXCOORD_0":11
			},
			"indices":8,
			"material":2
		}]
	},
	{
		"name":"Default-Mat.1",
		"primitives":[{
			"attributes":{
				"POSITION":13,
				"NORMAL":14,
				"TEXCOORD_0":15
			},
			"indices":12,
			"material":1
		}]
	},
	{
		"name":"Default-Mat.1",
		"primitives":[{
			"attributes":{
				"POSITION":17,
				"NORMAL":18,
				"TEXCOORD_0":19
			},
			"indices":16,
			"material":1
		}]
	},
	{
		"name":"Default-Mat.1",
		"primitives":[{
			"attributes":{
				"POSITION":21,
				"NORMAL":22,
				"TEXCOORD_0":23
			},
			"indices":20,
			"material":1
		}]
	},
	{
		"name":"Default-Mat",
		"primitives":[{
			"attributes":{
				"POSITION":25,
				"NORMAL":26,
				"TEXCOORD_0":27
			},
			"indices":24,
			"material":0
		}]
	},
	{
		"name":"Default-Mat.2",
		"primitives":[{
			"attributes":{
				"POSITION":29,
				"NORMAL":30,
				"TEXCOORD_0":31
			},
			"indices":28,
			"material":3
		}]
	},
	{
		"name":"Default-Mat.2",
		"primitives":[{
			"attributes":{
				"POSITION":33,
				"NORMAL":34,
				"TEXCOORD_0":35
			},
			"indices":32,
			"material":3
		}]
	}],
	"accessors":[{
		"bufferView":0,
		"type":"SCALAR",
		"componentType":5123,
		"byteOffset":0,
		"count":477,
		"min":[0],
		"max":[167]
	},
	{
		"bufferView":1,
		"type":"VEC3",
		"componentType":5126,
		"byteOffset":0,
		"count":168,
		"min":[-26.490924835205079,
		-6.661101818084717,
		-10.4600830078125],
		"max":[28.809429168701173,
		14.597672462463379,
		10.17474365234375]
	},
	{
		"bufferView":1,
		"type":"VEC3",
		"componentType":5126,
		"byteOffset":12,
		"count":168,
		"min":[-0.4036250114440918,
		-0.9992188215255737,
		-0.9984375238418579],
		"max":[0.9796562790870667,
		0.9999688267707825,
		0.9968438148498535]
	},
	{
		"bufferView":1,
		"type":"VEC2",
		"componentType":5126,
		"byteOffset":24,
		"count":168,
		"min":[0.02525399997830391,
		0.07029299437999726],
		"max":[0.9855980277061462,
		0.9894310235977173]
	},
	{
		"bufferView":2,
		"type":"SCALAR",
		"componentType":5123,
		"byteOffset":0,
		"count":75,
		"min":[0],
		"max":[34]
	},
	{
		"bufferView":3,
		"type":"VEC3",
		"componentType":5126,
		"byteOffset":0,
		"count":35,
		"min":[-34.31007766723633,
		-4.721419811248779,
		-10.4600830078125],
		"max":[2.99766206741333,
		9.69891357421875,
		9.0518798828125]
	},
	{
		"bufferView":3,
		"type":"VEC3",
		"componentType":5126,
		"byteOffset":12,
		"count":35,
		"min":[-0.3465000092983246,
		-0.9975938200950623,
		-0.9947500228881836],
		"max":[0.10215625166893006,
		0.9903125762939453,
		0.975687563419342]
	},
	{
		"bufferView":3,
		"type":"VEC2",
		"componentType":5126,
		"byteOffset":24,
		"count":35,
		"min":[0.3126699924468994,
		0.6083519458770752],
		"max":[0.9855980277061462,
		0.97593092918396]
	},
	{
		"bufferView":4,
		"type":"SCALAR",
		"componentType":5123,
		"byteOffset":0,
		"count":60,
		"min":[0],
		"max":[39]
	},
	{
		"bufferView":5,
		"type":"VEC3",
		"componentType":5126,
		"byteOffset":0,
		"count":40,
		"min":[-46.50319290161133,
		-4.701096057891846,
		-13.37274169921875],
		"max":[-5.69832181930542,
		7.708916187286377,
		12.13665771484375]
	},
	{
		"bufferView":5,
		"type":"VEC3",
		"componentType":5126,
		"byteOffset":12,
		"count":40,
		"min":[-0.818781316280365,
		-0.9989063143730164,
		-0.9846562743186951],
		"max":[0.5058437585830689,
		0.9776250720024109,
		0.979468822479248]
	},
	{
		"bufferView":5,
		"type":"VEC2",
		"componentType":5126,
		"byteOffset":24,
		"count":40,
		"min":[0.12292400002479553,
		0.46783995628356936],
		"max":[0.9619510173797607,
		0.97593092918396]
	},
	{
		"bufferView":6,
		"type":"SCALAR",
		"componentType":5123,
		"byteOffset":0,
		"count":222,
		"min":[0],
		"max":[103]
	},
	{
		"bufferView":7,
		"type":"VEC3",
		"componentType":5126,
		"byteOffset":0,
		"count":104,
		"min":[-7.414875030517578,
		7.606594085693359,
		-45.251708984375],
		"max":[26.590618133544923,
		34.09344482421875,
		43.21527099609375]
	},
	{
		"bufferView":7,
		"type":"VEC3",
		"componentType":5126,
		"byteOffset":12,
		"count":104,
		"min":[-0.6666562557220459,
		-0.8733437657356262,
		-0.9973750710487366],
		"max":[0.5818437933921814,
		0.9820938110351563,
		0.9852188229560852]
	},
	{
		"bufferView":7,
		"type":"VEC2",
		"componentType":5126,
		"byteOffset":24,
		"count":104,
		"min":[0.055247001349925998,
		0.49109798669815066],
		"max":[0.5488330125808716,
		0.739272952079773]
	},
	{
		"bufferView":8,
		"type":"SCALAR",
		"componentType":5123,
		"byteOffset":0,
		"count":3,
		"min":[0],
		"max":[2]
	},
	{
		"bufferView":9,
		"type":"VEC3",
		"componentType":5126,
		"byteOffset":0,
		"count":3,
		"min":[24.898967742919923,
		9.72979736328125,
		-3.016724109649658],
		"max":[26.650249481201173,
		11.611053466796875,
		-1.320862054824829]
	},
	{
		"bufferView":9,
		"type":"VEC3",
		"componentType":5126,
		"byteOffset":12,
		"count":3,
		"min":[0.46796876192092898,
		0.14040625095367433,
		-0.7817813158035278],
		"max":[0.6074062585830689,
		0.7243750095367432,
		-0.40790626406669619]
	},
	{
		"bufferView":9,
		"type":"VEC2",
		"componentType":5126,
		"byteOffset":24,
		"count":3,
		"min":[0.12183599174022675,
		0.5217999219894409],
		"max":[0.14262598752975465,
		0.5450749397277832]
	},
	{
		"bufferView":10,
		"type":"SCALAR",
		"componentType":5123,
		"byteOffset":0,
		"count":42,
		"min":[0],
		"max":[21]
	},
	{
		"bufferView":11,
		"type":"VEC3",
		"componentType":5126,
		"byteOffset":0,
		"count":22,
		"min":[32.71401596069336,
		6.720482349395752,
		-1.0082284212112427],
		"max":[35.65946578979492,
		8.924163818359375,
		2.2177133560180666]
	},
	{
		"bufferView":11,
		"type":"VEC3",
		"componentType":5126,
		"byteOffset":12,
		"count":22,
		"min":[0.006500000134110451,
		-0.9997813105583191,
		-0.8406875133514404],
		"max":[0.9997813105583191,
		0.6168437600135803,
		0.8413437604904175]
	},
	{
		"bufferView":11,
		"type":"VEC2",
		"componentType":5126,
		"byteOffset":24,
		"count":22,
		"min":[0.7758769392967224,
		0.13261237740516663],
		"max":[0.9438380599021912,
		0.1864590048789978]
	},
	{
		"bufferView":12,
		"type":"SCALAR",
		"componentType":5123,
		"byteOffset":0,
		"count":6,
		"min":[0],
		"max":[3]
	},
	{
		"bufferView":13,
		"type":"VEC3",
		"componentType":5126,
		"byteOffset":0,
		"count":4,
		"min":[-9.499958038330079,
		-6.661101818084717,
		-0.2091670036315918],
		"max":[-3.310749053955078,
		-4.701096057891846,
		2.245604991912842]
	},
	{
		"bufferView":13,
		"type":"VEC3",
		"componentType":5126,
		"byteOffset":12,
		"count":4,
		"min":[-0.0871562510728836,
		-0.9992188215255737,
		-0.30390626192092898],
		"max":[0.11928125470876694,
		-0.9451875686645508,
		0.0012812500353902579]
	},
	{
		"bufferView":13,
		"type":"VEC2",
		"componentType":5126,
		"byteOffset":24,
		"count":4,
		"min":[0.7658969163894653,
		0.8904520273208618],
		"max":[0.7887920141220093,
		0.9151970148086548]
	},
	{
		"bufferView":14,
		"type":"SCALAR",
		"componentType":5123,
		"byteOffset":0,
		"count":357,
		"min":[0],
		"max":[169]
	},
	{
		"bufferView":15,
		"type":"VEC3",
		"componentType":5126,
		"byteOffset":0,
		"count":170,
		"min":[-30.674823760986329,
		-10.15057373046875,
		-9.33135986328125],
		"max":[-8.998432159423829,
		-4.39263916015625,
		9.32281494140625]
	},
	{
		"bufferView":15,
		"type":"VEC3",
		"componentType":5126,
		"byteOffset":12,
		"count":170,
		"min":[-0.9998437762260437,
		-0.9996563196182251,
		-0.9924687743186951],
		"max":[0.6114062666893005,
		0.9999688267707825,
		0.999000072479248]
	},
	{
		"bufferView":15,
		"type":"VEC2",
		"componentType":5126,
		"byteOffset":24,
		"count":170,
		"min":[0.012787999585270882,
		0.007671999745070934],
		"max":[0.6798239946365356,
		0.2643579840660095]
	},
	{
		"bufferView":16,
		"type":"SCALAR",
		"componentType":5123,
		"byteOffset":0,
		"count":36,
		"min":[0],
		"max":[17]
	},
	{
		"bufferView":17,
		"type":"VEC3",
		"componentType":5126,
		"byteOffset":0,
		"count":18,
		"min":[26.977947235107423,
		6.642792224884033,
		-2.0953369140625],
		"max":[34.411376953125,
		9.138397216796875,
		3.167603015899658]
	},
	{
		"bufferView":17,
		"type":"VEC3",
		"componentType":5126,
		"byteOffset":12,
		"count":18,
		"min":[-0.006531250197440386,
		-0.9999688267707825,
		-0.8196250200271606],
		"max":[0.14740625023841859,
		0.7102813124656677,
		0.8208125233650208]
	},
	{
		"bufferView":17,
		"type":"VEC2",
		"componentType":5126,
		"byteOffset":24,
		"count":18,
		"min":[0.7585139870643616,
		0.03853499889373779],
		"max":[0.961201012134552,
		0.16574007272720338]
	}],
	"bufferViews":[{
		"target":34963,
		"buffer":0,
		"byteOffset":0,
		"byteLength":954
	},
	{
		"target":34962,
		"buffer":0,
		"byteOffset":956,
		"byteLength":5376,
		"byteStride":32
	},
	{
		"target":34963,
		"buffer":1,
		"byteOffset":0,
		"byteLength":150
	},
	{
		"target":34962,
		"buffer":1,
		"byteOffset":152,
		"byteLength":1120,
		"byteStride":32
	},
	{
		"target":34963,
		"buffer":2,
		"byteOffset":0,
		"byteLength":120
	},
	{
		"target":34962,
		"buffer":2,
		"byteOffset":120,
		"byteLength":1280,
		"byteStride":32
	},
	{
		"target":34963,
		"buffer":3,
		"byteOffset":0,
		"byteLength":444
	},
	{
		"target":34962,
		"buffer":3,
		"byteOffset":444,
		"byteLength":3328,
		"byteStride":32
	},
	{
		"target":34963,
		"buffer":4,
		"byteOffset":0,
		"byteLength":6
	},
	{
		"target":34962,
		"buffer":4,
		"byteOffset":8,
		"byteLength":96,
		"byteStride":32
	},
	{
		"target":34963,
		"buffer":5,
		"byteOffset":0,
		"byteLength":84
	},
	{
		"target":34962,
		"buffer":5,
		"byteOffset":84,
		"byteLength":704,
		"byteStride":32
	},
	{
		"target":34963,
		"buffer":6,
		"byteOffset":0,
		"byteLength":12
	},
	{
		"target":34962,
		"buffer":6,
		"byteOffset":12,
		"byteLength":128,
		"byteStride":32
	},
	{
		"target":34963,
		"buffer":7,
		"byteOffset":0,
		"byteLength":714
	},
	{
		"target":34962,
		"buffer":7,
		"byteOffset":716,
		"byteLength":5440,
		"byteStride":32
	},
	{
		"target":34963,
		"buffer":8,
		"byteOffset":0,
		"byteLength":72
	},
	{
		"target":34962,
		"buffer":8,
		"byteOffset":72,
		"byteLength":576,
		"byteStride":32
	}],
	"buffers":[{
		"uri":"data:application/octet-stream;base64,",
		"byteLength":6332
	},
	{
		"uri":"data:application/octet-stream;base64,",
		"byteLength":1272
	},
	{
		"uri":"data:application/octet-stream;base64,",
		"byteLength":1400
	},
	{
		"uri":"data:application/octet-stream;base64,",
		"byteLength":3772
	},
	{
		"uri":"data:application/octet-stream;base64,",
		"byteLength":104
	},
	{
		"uri":"data:application/octet-stream;base64,",
		"byteLength":788
	},
	{
		"uri":"data:application/octet-stream;base64,",
		"byteLength":140
	},
	{
		"uri":"data:application/octet-stream;base64,",
		"byteLength":6156
	},
	{
		"uri":"data:application/octet-stream;base64,",
		"byteLength":648
	}],
	"materials":[{
		"pbrMetallicRoughness":{
			"baseColorFactor":[1.0,
			1.0,
			1.0,
			1.0],
			"metallicFactor":0.0,
			"roughnessFactor":0.5
		},
		"emissiveFactor":[0.0,
		0.0,
		0.0],
		"alphaMode":"OPAQUE",
		"doubleSided":false,
		"name":"Mat"
	},
	{
		"pbrMetallicRoughness":{
			"baseColorFactor":[0.49,
			0.49,
			0.49,
			1.0],
			"metallicFactor":0.0,
			"roughnessFactor":0.5
		},
		"emissiveFactor":[0.0,
		0.0,
		0.0],
		"alphaMode":"OPAQUE",
		"doubleSided":false,
		"name":"Mat.1"
	},
	{
		"pbrMetallicRoughness":{
			"baseColorFactor":[0.14,
			0.14,
			0.14,
			1.0],
			"metallicFactor":0.0,
			"roughnessFactor":0.5
		},
		"emissiveFactor":[0.0,
		0.0,
		0.0],
		"alphaMode":"OPAQUE",
		"doubleSided":false,
		"name":"Mat.3"
	},
	{
		"pbrMetallicRoughness":{
			"baseColorFactor":[0.8,
			0.5293333333333331,
			0.23999999999999997,
			1.0],
			"metallicFactor":0.0,
			"roughnessFactor":0.5
		},
		"emissiveFactor":[0.0,
		0.0,
		0.0],
		"alphaMode":"OPAQUE",
		"doubleSided":false,
		"name":"Mat.2"
	}]
}