{
	"images":[{
		"uri":"data:image/jpeg;base64,"
	}],
	"asset":{
		"version":"2.0",
		"generator":"Created using the official Cinema 4D glTF Exporter 1.000x284978"
	},
	"scenes":[{
		"nodes":[0]
	}],
	"nodes":[{
		"name":"stone",
		"mesh":0
	}],
	"meshes":[{
		"name":"stone",
		"primitives":[{
			"attributes":{
				"POSITION":1,
				"NORMAL":2,
				"TEXCOORD_0":3
			},
			"indices":0,
			"material":0
		}]
	}],
	"accessors":[{
		"bufferView":0,
		"type":"SCALAR",
		"componentType":5123,
		"byteOffset":0,
		"count":585,
		"min":[0],
		"max":[564]
	},
	{
		"bufferView":1,
		"type":"VEC3",
		"componentType":5126,
		"byteOffset":0,
		"count":565,
		"min":[-0.9339140057563782,
		-0.3710879981517792,
		-0.6624869704246521],
		"max":[1.0728859901428223,
		0.6503530144691467,
		0.6255769729614258]
	},
	{
		"bufferView":1,
		"type":"VEC3",
		"componentType":5126,
		"byteOffset":12,
		"count":565,
		"min":[-0.9715625643730164,
		-0.6926875114440918,
		-0.986750066280365],
		"max":[0.9656875729560852,
		0.9978438019752502,
		0.9307500720024109]
	},
	{
		"bufferView":1,
		"type":"VEC2",
		"componentType":5126,
		"byteOffset":24,
		"count":565,
		"min":[0.022299999371170999,
		0.02229999750852585],
		"max":[0.9776999950408936,
		0.9776999950408936]
	}],
	"bufferViews":[{
		"target":34963,
		"buffer":0,
		"byteOffset":0,
		"byteLength":1170
	},
	{
		"target":34962,
		"buffer":0,
		"byteOffset":1172,
		"byteLength":18080,
		"byteStride":32
	}],
	"buffers":[{
		"uri":"data:application/octet-stream;base64,",
		"byteLength":19252
	}],
	"samplers":[{
		"magFilter":9729,
		"minFilter":9729,
		"wrapS":10497,
		"wrapT":10497
	}],
	"textures":[{
		"sampler":0,
		"source":0
	}],
	"materials":[{
		"pbrMetallicRoughness":{
			"baseColorTexture":{
				"index":0
			},
			"baseColorFactor":[0.800000011920929,
			0.800000011920929,
			0.800000011920929,
			1.0],
			"metallicFactor":1.0,
			"roughnessFactor":1.0
		},
		"emissiveFactor":[0.0,
		0.0,
		0.0],
		"alphaMode":"BLEND",
		"doubleSided":false,
		"name":"None"
	}]
}