{
	"asset":{
		"version":"2.0",
		"generator":"Created using the official Cinema 4D glTF Exporter 1.000x284978"
	},
	"scenes":[{
		"nodes":[0]
	}],
	"nodes":[{
		"name":"group1295984436",
		"translation":[0.0,
		0.07455037534236908,
		0.0],
		"mesh":0,
		"rotation":[0.0,
		-0.13052618503570558,
		0.0,
		0.9914448857307434],
		"scale":[1.0,
		1.0,
		1.0]
	}],
	"meshes":[{
		"name":"group1295984436",
		"primitives":[{
			"attributes":{
				"POSITION":1
			},
			"indices":0,
			"material":0
		}]
	}],
	"accessors":[{
		"bufferView":0,
		"type":"SCALAR",
		"componentType":5123,
		"count":180,
		"byteOffset":0,
		"min":[0],
		"max":[31]
	},
	{
		"bufferView":1,
		"type":"VEC3",
		"componentType":5126,
		"count":32,
		"byteOffset":0,
		"min":[-0.14550644159317017,
		-0.14186228811740876,
		-0.12284666299819946],
		"max":[0.0962555781006813,
		0.20550528168678285,
		0.13342976570129395]
	}],
	"bufferViews":[{
		"buffer":0,
		"byteOffset":0,
		"byteLength":360,
		"target":34963
	},
	{
		"buffer":0,
		"byteOffset":360,
		"byteLength":384,
		"target":34962
	}],
	"buffers":[{
		"uri":"data:application/octet-stream;base64,",
		"byteLength":744
	}],
	"materials":[{
		"pbrMetallicRoughness":{
			"baseColorFactor":[0.4699999988079071,
			0.5600000023841858,
			0.6100000143051148,
			1.0],
			"metallicFactor":0.0,
			"roughnessFactor":0.5
		},
		"emissiveFactor":[0.0,
		0.0,
		0.0],
		"alphaMode":"OPAQUE",
		"doubleSided":false,
		"name":"mat16"
	}]
}