{
	"asset":{
		"version":"2.0",
		"generator":"Created using the official Cinema 4D glTF Exporter 1.000x284978"
	},
	"scenes":[{
		"nodes":[0,
		1]
	}],
	"nodes":[{
		"name":"Camera",
		"translation":[1.7950432300567628,
		0.749272882938385,
		-1.001175880432129],
		"rotation":[0.0810825303196907,
		-0.8605539798736572,
		-0.14490315318107606,
		-0.48153460025787356],
		"scale":[1.0,
		1.0,
		1.0],
		"camera":0
	},
	{
		"name":"group1295984436",
		"translation":[0.0,
		0.07455037534236908,
		0.0],
		"rotation":[0.0,
		-1.2246468525851679e-16,
		0.0,
		1.0],
		"scale":[1.0,
		1.0,
		1.0],
		"mesh":0
	}],
	"meshes":[{
		"name":"group1295984436",
		"primitives":[{
			"attributes":{
				"POSITION":7,
				"NORMAL":8,
				"TEXCOORD_0":9
			},
			"indices":6,
			"material":0
		}]
	}],
	"buffers":[{
		"uri":"data:application/octet-stream;base64,",
		"byteLength":104
	},
	{
		"uri":"data:application/octet-stream;base64,",
		"byteLength":5928
	},
	{
		"uri":"data:application/octet-stream;base64,",
		"byteLength":216
	}],
	"cameras":[{
		"type":"perspective",
		"perspective":{
			"znear":0.009999999776482582,
			"zfar":10000000000.0,
			"aspectRatio":1.7777777910232545,
			"yfov":0.5483348965644836
		}
	}],
	"accessors":[{
		"bufferView":0,
		"type":"SCALAR",
		"componentType":5126,
		"byteOffset":0,
		"count":2,
		"min":[0.0],
		"max":[3.0]
	},
	{
		"bufferView":0,
		"type":"VEC3",
		"componentType":5126,
		"byteOffset":8,
		"count":2,
		"min":[1.7950432300567628,
		0.749272882938385,
		-1.001175880432129],
		"max":[1.7950432300567628,
		0.749272882938385,
		-1.001175880432129]
	},
	{
		"bufferView":1,
		"type":"SCALAR",
		"componentType":5126,
		"byteOffset":0,
		"count":2,
		"min":[0.0],
		"max":[3.0]
	},
	{
		"bufferView":1,
		"type":"VEC4",
		"componentType":5126,
		"byteOffset":8,
		"count":2,
		"min":[0.0810825303196907,
		-0.8605539798736572,
		-0.14490315318107606,
		-0.48153460025787356],
		"max":[0.0810825303196907,
		-0.8605539798736572,
		-0.14490315318107606,
		-0.48153460025787356]
	},
	{
		"bufferView":2,
		"type":"SCALAR",
		"componentType":5126,
		"byteOffset":0,
		"count":2,
		"min":[0.0],
		"max":[3.0]
	},
	{
		"bufferView":2,
		"type":"VEC3",
		"componentType":5126,
		"byteOffset":8,
		"count":2,
		"min":[1.0,
		1.0,
		1.0],
		"max":[1.0,
		1.0,
		1.0]
	},
	{
		"bufferView":3,
		"type":"SCALAR",
		"componentType":5123,
		"byteOffset":0,
		"count":180,
		"min":[0],
		"max":[173]
	},
	{
		"bufferView":4,
		"type":"VEC3",
		"componentType":5126,
		"byteOffset":0,
		"count":174,
		"min":[-0.14550644159317017,
		-0.14186228811740876,
		-0.12284666299819946],
		"max":[0.0962555781006813,
		0.20550528168678285,
		0.13342976570129395]
	},
	{
		"bufferView":4,
		"type":"VEC3",
		"componentType":5126,
		"byteOffset":12,
		"count":174,
		"min":[-0.9904375672340393,
		-0.999625027179718,
		-0.9985625743865967],
		"max":[0.994562566280365,
		0.9994375705718994,
		0.9988750219345093]
	},
	{
		"bufferView":4,
		"type":"VEC2",
		"componentType":5126,
		"byteOffset":24,
		"count":174,
		"min":[-0.10325100272893906,
		0.8670978546142578],
		"max":[0.10193420201539993,
		1.0479261875152588]
	},
	{
		"bufferView":5,
		"type":"SCALAR",
		"componentType":5126,
		"byteOffset":0,
		"count":3,
		"min":[0.0],
		"max":[3.0]
	},
	{
		"bufferView":5,
		"type":"VEC3",
		"componentType":5126,
		"byteOffset":12,
		"count":3,
		"min":[0.0,
		0.07455037534236908,
		0.0],
		"max":[0.0,
		0.07455037534236908,
		0.0]
	},
	{
		"bufferView":6,
		"type":"SCALAR",
		"componentType":5126,
		"byteOffset":0,
		"count":6,
		"min":[0.0],
		"max":[3.0]
	},
	{
		"bufferView":6,
		"type":"VEC4",
		"componentType":5126,
		"byteOffset":24,
		"count":6,
		"min":[0.0,
		-0.9978589415550232,
		0.0,
		-0.9914448857307434],
		"max":[0.0,
		0.13052618503570558,
		0.0,
		1.0]
	},
	{
		"bufferView":7,
		"type":"SCALAR",
		"componentType":5126,
		"byteOffset":0,
		"count":3,
		"min":[0.0],
		"max":[3.0]
	},
	{
		"bufferView":7,
		"type":"VEC3",
		"componentType":5126,
		"byteOffset":12,
		"count":3,
		"min":[1.0,
		1.0,
		1.0],
		"max":[1.0,
		1.0,
		1.0]
	}],
	"bufferViews":[{
		"buffer":0,
		"byteOffset":0,
		"byteLength":32
	},
	{
		"buffer":0,
		"byteOffset":32,
		"byteLength":40
	},
	{
		"buffer":0,
		"byteOffset":72,
		"byteLength":32
	},
	{
		"target":34963,
		"buffer":1,
		"byteOffset":0,
		"byteLength":360
	},
	{
		"target":34962,
		"buffer":1,
		"byteOffset":360,
		"byteLength":5568,
		"byteStride":32
	},
	{
		"buffer":2,
		"byteOffset":0,
		"byteLength":48
	},
	{
		"buffer":2,
		"byteOffset":48,
		"byteLength":120
	},
	{
		"buffer":2,
		"byteOffset":168,
		"byteLength":48
	}],
	"materials":[{
		"pbrMetallicRoughness":{
			"baseColorFactor":[0.6200000047683716,
			0.6200000047683716,
			0.6200000047683716,
			1.0],
			"metallicFactor":1.0,
			"roughnessFactor":1.0
		},
		"emissiveFactor":[0.0,
		0.0,
		0.0],
		"alphaMode":"OPAQUE",
		"doubleSided":false,
		"name":"mat22"
	}],
	"animations":[{
		"samplers":[{
			"input":0,
			"interpolation":"LINEAR",
			"output":1
		},
		{
			"input":2,
			"interpolation":"LINEAR",
			"output":3
		},
		{
			"input":4,
			"interpolation":"LINEAR",
			"output":5
		},
		{
			"input":10,
			"interpolation":"LINEAR",
			"output":11
		},
		{
			"input":12,
			"interpolation":"LINEAR",
			"output":13
		},
		{
			"input":14,
			"interpolation":"LINEAR",
			"output":15
		}],
		"channels":[{
			"sampler":0,
			"target":{
				"node":0,
				"path":"translation"
			}
		},
		{
			"sampler":1,
			"target":{
				"node":0,
				"path":"rotation"
			}
		},
		{
			"sampler":2,
			"target":{
				"node":0,
				"path":"scale"
			}
		},
		{
			"sampler":3,
			"target":{
				"node":1,
				"path":"translation"
			}
		},
		{
			"sampler":4,
			"target":{
				"node":1,
				"path":"rotation"
			}
		},
		{
			"sampler":5,
			"target":{
				"node":1,
				"path":"scale"
			}
		}]
	}]
}