{
	"asset":{
		"version":"2.0",
		"generator":"Created using the official Cinema 4D glTF Exporter 1.000x284978"
	},
	"scenes":[{
		"nodes":[0]
	}],
	"nodes":[{
		"name":"group933055174",
		"mesh":0
	}],
	"meshes":[{
		"name":"group933055174",
		"primitives":[{
			"attributes":{
				"POSITION":1,
				"NORMAL":2,
				"TEXCOORD_0":3
			},
			"indices":0,
			"material":0
		}]
	}],
	"accessors":[{
		"bufferView":0,
		"type":"SCALAR",
		"componentType":5123,
		"byteOffset":0,
		"count":186,
		"min":[0],
		"max":[181]
	},
	{
		"bufferView":1,
		"type":"VEC3",
		"componentType":5126,
		"byteOffset":0,
		"count":182,
		"min":[-0.20289894938468934,
		-0.2433856874704361,
		-0.14499489963054658],
		"max":[0.15526604652404786,
		0.2481081336736679,
		0.17147749662399293]
	},
	{
		"bufferView":1,
		"type":"VEC3",
		"componentType":5126,
		"byteOffset":12,
		"count":182,
		"min":[-0.9975625276565552,
		-0.8665000200271606,
		-0.9988125562667847],
		"max":[0.9939375519752502,
		0.9587500691413879,
		0.9984375238418579]
	},
	{
		"bufferView":1,
		"type":"VEC2",
		"componentType":5126,
		"byteOffset":24,
		"count":182,
		"min":[-0.08237198740243912,
		0.8469046354293823],
		"max":[0.08983097225427628,
		1.0103158950805665]
	}],
	"bufferViews":[{
		"target":34963,
		"buffer":0,
		"byteOffset":0,
		"byteLength":372
	},
	{
		"target":34962,
		"buffer":0,
		"byteOffset":372,
		"byteLength":5824,
		"byteStride":32
	}],
	"buffers":[{
		"uri":"data:application/octet-stream;base64,",
		"byteLength":6196
	}],
	"materials":[{
		"pbrMetallicRoughness":{
			"baseColorFactor":[0.6200000047683716,
			0.6200000047683716,
			0.6200000047683716,
			1.0],
			"metallicFactor":0.0,
			"roughnessFactor":0.5
		},
		"emissiveFactor":[0.0,
		0.0,
		0.0],
		"alphaMode":"OPAQUE",
		"doubleSided":false,
		"name":"mat22"
	}]
}